<svg width="24" height="24" viewBox="0 0 24 24" fill="none" xmlns="http://www.w3.org/2000/svg">
<g clip-path="url(#clip0_3810_426)">
<path fill-rule="evenodd" clip-rule="evenodd" d="M12 0.875C18.1442 0.875 23.125 5.85583 23.125 12C23.125 18.1442 18.1442 23.125 12 23.125C5.85583 23.125 0.875 18.1442 0.875 12C0.875 5.85583 5.85583 0.875 12 0.875ZM17.2959 8.2041C16.8566 7.76476 16.1434 7.76476 15.7041 8.2041L10.5 13.4082L8.2959 11.2041C7.85656 10.7648 7.14344 10.7648 6.7041 11.2041C6.26476 11.6434 6.26476 12.3566 6.7041 12.7959L9.7041 15.7959C10.1434 16.2352 10.8566 16.2352 11.2959 15.7959L17.2959 9.7959C17.7352 9.35656 17.7352 8.64344 17.2959 8.2041Z" fill="#EFC21A"/>
</g>
<defs>
<clipPath id="clip0_3810_426">
<rect width="24" height="24" fill="white"/>
</clipPath>
</defs>
</svg>
