<svg width="330" height="152" viewBox="0 0 330 152" fill="none" xmlns="http://www.w3.org/2000/svg">
<g clip-path="url(#clip0_4044_6182)">
<path d="M267.553 102.605C267.553 119.079 263.679 134.629 256.771 148.418H73.1396C66.2172 134.629 62.3435 119.079 62.3435 102.605C62.3575 45.9253 108.297 0 164.948 0C221.6 0 267.553 45.9253 267.553 102.605Z" fill="#FFEDAF"/>
<path d="M18.781 149.453H311.744" stroke="#092C31" stroke-width="4.19537" stroke-linecap="round" stroke-linejoin="round"/>
<path d="M2.09766 149.453H11.0198" stroke="#092C31" stroke-width="4.19537" stroke-linecap="round" stroke-linejoin="round"/>
<path d="M318.876 149.453H327.812" stroke="#092C31" stroke-width="4.19537" stroke-linecap="round" stroke-linejoin="round"/>
<path d="M247.261 133.875H212.971C209.084 133.875 205.937 130.728 205.937 126.841V64.1338C205.937 60.2461 209.084 57.0996 212.971 57.0996H234.312C236.647 57.0996 238.829 58.2603 240.143 60.1902L253.079 79.3071C253.862 80.4678 254.296 81.8523 254.296 83.2508V126.841C254.296 130.728 251.149 133.875 247.261 133.875Z" fill="#D3A900" stroke="#092C31" stroke-width="4.19537" stroke-linecap="round" stroke-linejoin="round"/>
<path d="M218.551 84.2016V70.6645C218.551 68.2731 220.495 66.3433 222.872 66.3433H231.64C233.081 66.3433 234.423 67.0565 235.22 68.2452L244.31 81.6564C244.8 82.3696 245.052 83.2226 245.052 84.0757V87.6418C245.052 90.0331 243.108 91.963 240.73 91.963H226.033C224.816 91.963 223.655 91.4596 222.844 90.5506L219.698 87.1104C218.97 86.3132 218.565 85.2644 218.565 84.1876L218.551 84.2016Z" fill="#EEC21A" stroke="#092C31" stroke-width="4.19537" stroke-linecap="round" stroke-linejoin="round"/>
<path d="M257.638 117.177H85.6833V133.889H257.638V117.177Z" fill="#EEC21A" stroke="#092C31" stroke-width="4.19537" stroke-linecap="round" stroke-linejoin="round"/>
<path d="M83.2639 32.8641H194.945C201.014 32.8641 205.951 37.8006 205.951 43.8699V117.177H72.2581V43.856C72.2581 37.7867 77.1946 32.8501 83.2639 32.8501V32.8641Z" fill="#FFEDAF" stroke="#092C31" stroke-width="4.19537" stroke-linecap="round" stroke-linejoin="round"/>
<path d="M99.5001 131.679C99.5001 134.63 100.241 137.399 101.542 139.818C104.437 145.216 110.156 148.894 116.701 148.894C124.337 148.894 130.812 143.916 133.049 137.021C133.608 135.343 133.902 133.553 133.902 131.679C133.902 126.435 131.553 121.736 127.861 118.59C124.854 116.031 120.966 114.478 116.701 114.478C112.03 114.478 107.807 116.338 104.702 119.345C101.486 122.463 99.4861 126.841 99.4861 131.679H99.5001Z" fill="#D3A900" stroke="#092C31" stroke-width="4.19537" stroke-linecap="round" stroke-linejoin="round"/>
<path d="M108.324 131.693C108.324 133.133 108.688 134.476 109.317 135.651C110.73 138.28 113.513 140.07 116.701 140.07C120.421 140.07 123.568 137.65 124.658 134.294C124.924 133.483 125.078 132.602 125.078 131.693C125.078 129.134 123.931 126.854 122.127 125.316C120.659 124.071 118.771 123.316 116.687 123.316C114.408 123.316 112.352 124.225 110.842 125.694C109.275 127.218 108.296 129.344 108.296 131.693H108.324Z" fill="#EFC21B" stroke="#092C31" stroke-width="4.19537" stroke-linecap="round" stroke-linejoin="round"/>
<path d="M206.86 131.679C206.86 134.63 207.601 137.399 208.901 139.818C211.796 145.216 217.516 148.894 224.061 148.894C231.696 148.894 238.171 143.916 240.409 137.021C240.968 135.343 241.262 133.553 241.262 131.679C241.262 126.435 238.912 121.736 235.22 118.59C232.214 116.031 228.326 114.478 224.061 114.478C219.39 114.478 215.167 116.338 212.062 119.345C208.845 122.463 206.846 126.841 206.846 131.679H206.86Z" fill="#D3A900" stroke="#092C31" stroke-width="4.19537" stroke-linecap="round" stroke-linejoin="round"/>
<path d="M215.684 131.693C215.684 133.133 216.047 134.476 216.677 135.651C218.089 138.28 220.872 140.07 224.06 140.07C227.78 140.07 230.927 137.65 232.018 134.294C232.283 133.483 232.437 132.602 232.437 131.693C232.437 129.134 231.291 126.854 229.487 125.316C228.018 124.071 226.13 123.316 224.047 123.316C221.767 123.316 219.711 124.225 218.201 125.694C216.635 127.218 215.656 129.344 215.656 131.693H215.684Z" fill="#EFC21B" stroke="#092C31" stroke-width="4.19537" stroke-linecap="round" stroke-linejoin="round"/>
<path d="M138.881 101.291C153.517 101.291 165.381 89.426 165.381 74.7901C165.381 60.1541 153.517 48.2893 138.881 48.2893C124.245 48.2893 112.38 60.1541 112.38 74.7901C112.38 89.426 124.245 101.291 138.881 101.291Z" fill="#EEC21A" stroke="#092C31" stroke-width="4.19537" stroke-linecap="round" stroke-linejoin="round"/>
<path d="M134.699 86.1871L153.984 65.5459" stroke="#092C31" stroke-width="4.19537" stroke-linecap="round" stroke-linejoin="round"/>
<path d="M134.7 86.1874L125.568 76.7058" stroke="#092C31" stroke-width="4.19537" stroke-linecap="round" stroke-linejoin="round"/>
</g>
<defs>
<clipPath id="clip0_4044_6182">
<rect width="329.91" height="151.551" fill="white"/>
</clipPath>
</defs>
</svg>
