<?xml version="1.0" standalone="no"?>
<!DOCTYPE svg PUBLIC "-//W3C//DTD SVG 1.1//EN" "http://www.w3.org/Graphics/SVG/1.1/DTD/svg11.dtd" >
<svg>
<metadata>
Created by FontForge 20120731 at Mon May 18 17:55:07 2026
 By fw_worker
(c)2008-12 Paul Barnes and Christian Schwartz, under exclusive license to Schwartzco Inc./Commercial Type. All rights reserved.
</metadata>
<defs>
<font id="GuardianSansXCond-Semibold" horiz-adv-x="428" >
  <font-face 
    font-family="Guardian Sans XCond Semibold"
    font-weight="600"
    font-stretch="extra-condensed"
    units-per-em="1000"
    panose-1="2 11 8 3 3 2 2 6 2 3"
    ascent="813"
    descent="-187"
    x-height="524"
    cap-height="693"
    bbox="-44 -194 647 737"
    underline-thickness="50"
    underline-position="-50"
    stemh="100"
    stemv="118"
    unicode-range="U+0020-201D"
  />
<missing-glyph horiz-adv-x="354" 
 />
    <glyph glyph-name=".notdef" horiz-adv-x="354" 
 />
    <glyph glyph-name="space" unicode=" " horiz-adv-x="120" 
 />
    <glyph glyph-name="exclam" unicode="!" horiz-adv-x="220" 
d="M60 200l-18 493h136l-19 -493h-99zM51 0v120h119v-120h-119z" />
    <glyph glyph-name="quotedbl" unicode="&#x22;" horiz-adv-x="312" 
d="M38 495l-13 198h112l-11 -198h-88zM186 495l-13 198h112l-11 -198h-88z" />
    <glyph glyph-name="quotesingle" unicode="'" horiz-adv-x="163" 
d="M38 495l-13 198h112l-11 -198h-88z" />
    <glyph glyph-name="comma" unicode="," horiz-adv-x="189" 
d="M25 -81l16 207h121l-43 -207h-94z" />
    <glyph glyph-name="hyphen" unicode="-" horiz-adv-x="239" 
d="M32 231v97h176v-97h-176z" />
    <glyph glyph-name="period" unicode="." horiz-adv-x="191" 
d="M36 0v121h119v-121h-119z" />
    <glyph glyph-name="zero" unicode="0" horiz-adv-x="477" 
d="M240 -8c-139 0 -211 87 -211 324v63c0 213 63 322 207 322c139 0 212 -89 212 -317v-65c0 -214 -68 -327 -208 -327zM241 92c60 0 72 66 72 198v118c0 140 -21 193 -77 193s-72 -62 -72 -189v-118c0 -133 14 -202 77 -202z" />
    <glyph glyph-name="one" unicode="1" horiz-adv-x="275" 
d="M98 0v564l-84 -7v75l144 65h66v-697h-126z" />
    <glyph glyph-name="two" unicode="2" horiz-adv-x="383" 
d="M18 0v90l127 195c46 71 73 122 73 199c0 72 -34 112 -102 112c-41 0 -73 -11 -92 -21v96c26 16 74 30 141 30c121 0 188 -69 188 -204c0 -109 -40 -174 -99 -258l-98 -136v-3h201v-100h-339z" />
    <glyph glyph-name="three" unicode="3" horiz-adv-x="376" 
d="M150 -8c-67 0 -107 12 -135 31v94c23 -13 58 -23 94 -23c69 0 105 30 105 113c0 73 -24 103 -88 103h-43v95h44c54 0 81 33 81 96c0 71 -28 98 -97 98c-34 0 -65 -7 -84 -15v92c25 14 66 25 126 25c120 0 184 -60 184 -171c0 -102 -41 -144 -99 -162v-3
c69 -14 111 -55 111 -167c0 -133 -74 -206 -199 -206z" />
    <glyph glyph-name="four" unicode="4" horiz-adv-x="432" 
d="M231 0v145h-222v87l225 462h121v-452h65v-97h-65v-145h-124zM106 242h125v254h-3l-122 -251v-3z" />
    <glyph glyph-name="five" unicode="5" horiz-adv-x="373" 
d="M147 -8c-60 0 -103 11 -131 26v95c23 -10 54 -18 89 -18c82 0 108 43 108 124c0 77 -26 113 -108 113c-24 0 -50 -3 -72 -6l16 367h284v-102h-185l-8 -167c10 1 25 3 43 3c113 0 165 -65 165 -206s-70 -229 -201 -229z" />
    <glyph glyph-name="six" unicode="6" horiz-adv-x="440" 
d="M232 86c41 0 59 40 59 129c0 82 -14 125 -69 125c-28 0 -52 -13 -60 -18v-60c0 -127 22 -176 70 -176zM232 -8c-140 0 -202 106 -202 294v65c0 270 96 350 246 350c53 0 95 -10 112 -22v-96c-19 7 -55 16 -92 16c-80 0 -134 -29 -134 -199c25 18 57 33 106 33
c105 0 152 -77 152 -208c0 -141 -59 -233 -188 -233z" />
    <glyph glyph-name="seven" unicode="7" horiz-adv-x="348" 
d="M43 0l160 584v5h-195v104h328v-94l-158 -599h-135z" />
    <glyph glyph-name="eight" unicode="8" horiz-adv-x="433" 
d="M209 -8c-124 0 -192 65 -192 174c0 86 44 143 107 179c-44 35 -91 85 -91 177c0 107 68 179 188 179c119 0 178 -64 178 -172c0 -79 -49 -136 -95 -160c66 -40 111 -93 111 -186c0 -111 -68 -191 -206 -191zM209 85c50 0 76 36 76 85c0 55 -31 91 -95 127
c-28 -24 -56 -65 -56 -124c0 -56 29 -88 75 -88zM238 411c30 30 46 65 46 114c0 51 -19 83 -63 83c-39 0 -61 -28 -61 -78c0 -54 25 -84 78 -119z" />
    <glyph glyph-name="nine" unicode="9" horiz-adv-x="440" 
d="M164 -8c-53 0 -96 13 -114 24v95c19 -6 59 -16 95 -16c87 0 134 28 133 197c-23 -18 -55 -32 -97 -32c-109 0 -161 77 -161 209c0 143 61 232 195 232c147 0 195 -107 195 -291v-68c0 -271 -87 -350 -246 -350zM220 352c28 0 51 13 58 17v62c0 128 -15 176 -64 176
c-45 0 -64 -36 -64 -129c0 -82 16 -126 70 -126z" />
    <glyph glyph-name="question" unicode="?" horiz-adv-x="327" 
d="M73 200v54c0 70 12 95 65 154c35 38 47 61 47 110c0 62 -32 84 -92 84c-34 0 -57 -6 -77 -11v91c23 10 72 19 122 19c112 0 172 -58 172 -169c0 -81 -22 -121 -75 -179c-45 -48 -58 -58 -58 -108v-45h-104zM67 0v120h118v-120h-118z" />
    <glyph glyph-name="A" unicode="A" horiz-adv-x="468" 
d="M8 0l146 693h156l150 -693h-125l-31 152h-150l-30 -152h-116zM230 566h-3s-5 -62 -16 -117l-41 -204h118l-42 204c-12 57 -16 117 -16 117z" />
    <glyph glyph-name="B" unicode="B" horiz-adv-x="452" 
d="M44 0v693h189c128 0 179 -61 179 -172c0 -87 -32 -140 -104 -155v-4c76 -10 126 -48 126 -169c0 -120 -60 -193 -204 -193h-186zM170 93h39c73 0 93 36 93 114c0 81 -29 105 -92 105h-40v-219zM170 403h33c58 0 87 25 87 102c0 76 -27 96 -82 96h-38v-198z" />
    <glyph glyph-name="C" unicode="C" horiz-adv-x="418" 
d="M269 -8c-156 0 -240 83 -240 315v74c0 252 109 320 246 320c53 0 94 -12 118 -27v-98c-27 12 -59 21 -97 21c-85 0 -131 -45 -131 -212v-73c0 -145 31 -216 129 -216c43 0 79 12 104 25v-98c-25 -17 -72 -31 -129 -31z" />
    <glyph glyph-name="D" unicode="D" horiz-adv-x="491" 
d="M44 0v693h170c157 0 250 -79 250 -307v-62c0 -219 -91 -324 -250 -324h-170zM172 100h44c78 0 115 62 115 211v76c0 158 -44 206 -119 206h-40v-493z" />
    <glyph glyph-name="E" unicode="E" horiz-adv-x="391" 
d="M44 0v693h323v-100h-196v-187h163v-99h-163v-207h203v-100h-330z" />
    <glyph glyph-name="F" unicode="F" horiz-adv-x="377" 
d="M44 0v693h318v-100h-191v-204h158v-99h-158v-290h-127z" />
    <glyph glyph-name="G" unicode="G" horiz-adv-x="479" 
d="M267 -8c-156 0 -238 70 -238 330v53c0 225 78 326 258 326c69 0 112 -15 133 -28v-101c-30 13 -67 24 -116 24c-109 0 -140 -63 -140 -204v-107c0 -136 26 -193 109 -193c21 0 40 4 49 7v179h-68v98h190v-349c-33 -16 -97 -35 -177 -35z" />
    <glyph glyph-name="H" unicode="H" horiz-adv-x="496" 
d="M44 0v693h127v-284h154v284h127v-693h-127v308h-154v-308h-127z" />
    <glyph glyph-name="I" unicode="I" horiz-adv-x="215" 
d="M44 0v693h127v-693h-127z" />
    <glyph glyph-name="J" unicode="J" horiz-adv-x="315" 
d="M118 -7c-45 0 -79 7 -103 19v94c16 -4 40 -8 65 -8c49 0 66 23 66 80v515h127v-527c0 -103 -36 -173 -155 -173z" />
    <glyph glyph-name="K" unicode="K" horiz-adv-x="470" 
d="M323 0l-147 358l149 335h133l-154 -324l160 -369h-141zM44 0v693h127v-693h-127z" />
    <glyph glyph-name="L" unicode="L" horiz-adv-x="369" 
d="M44 0v693h127v-593h181v-100h-308z" />
    <glyph glyph-name="M" unicode="M" horiz-adv-x="619" 
d="M44 0v693h172l70 -364c14 -74 24 -149 24 -149h2s10 78 23 149l68 364h172v-693h-117v333c0 73 9 227 9 227h-2s-20 -113 -34 -184l-77 -376h-100l-74 368c-9 44 -35 191 -35 191h-2s7 -146 7 -226v-333h-106z" />
    <glyph glyph-name="N" unicode="N" horiz-adv-x="494" 
d="M44 0v693h143l122 -370c19 -57 42 -154 42 -154h1s-11 67 -11 161v363h109v-693h-133l-119 353c-27 79 -53 180 -53 180h-2s10 -63 10 -191v-342h-109z" />
    <glyph glyph-name="O" unicode="O" horiz-adv-x="503" 
d="M252 -8c-144 0 -223 87 -223 322v65c0 214 73 322 220 322c145 0 225 -87 225 -317v-70c0 -212 -74 -322 -222 -322zM252 92c66 0 87 62 87 193v113c0 141 -21 203 -89 203c-69 0 -86 -68 -86 -193v-112c0 -138 18 -204 88 -204z" />
    <glyph glyph-name="P" unicode="P" horiz-adv-x="446" 
d="M44 0v693h186c137 0 196 -60 196 -216c0 -148 -61 -223 -197 -223h-58v-254h-127zM171 350h39c61 0 85 36 85 124c0 94 -25 122 -85 122h-39v-246z" />
    <glyph glyph-name="Q" unicode="Q" horiz-adv-x="505" 
d="M473 -102l-267 94c-101 34 -177 94 -177 324v63c0 214 74 322 220 322c145 0 226 -87 226 -317v-68c0 -162 -41 -247 -117 -277l144 -38zM252 88c67 0 87 63 87 195v116c0 140 -22 203 -88 203c-67 0 -86 -69 -86 -193v-115c0 -138 18 -206 87 -206z" />
    <glyph glyph-name="R" unicode="R" horiz-adv-x="455" 
d="M44 0v693h185c139 0 196 -56 196 -205c0 -101 -34 -151 -85 -173v-4l114 -311h-132l-94 271h-57v-271h-127zM170 365h45c57 0 79 36 79 115c0 83 -18 117 -83 117h-41v-232z" />
    <glyph glyph-name="S" unicode="S" horiz-adv-x="387" 
d="M159 -8c-58 0 -107 15 -136 32v101c28 -13 74 -29 120 -29c64 0 99 28 99 94c0 62 -24 81 -69 104l-42 22c-56 30 -108 81 -108 190c0 129 69 195 196 195c64 0 97 -11 120 -24v-101c-22 11 -63 23 -109 23c-56 0 -84 -23 -84 -81c0 -50 17 -68 57 -88l42 -21
c73 -37 120 -77 120 -200c0 -132 -62 -217 -206 -217z" />
    <glyph glyph-name="T" unicode="T" horiz-adv-x="401" 
d="M137 0v593h-124v100h375v-100h-124v-593h-127z" />
    <glyph glyph-name="U" unicode="U" horiz-adv-x="487" 
d="M244 -9c-151 0 -203 76 -203 201v501h127v-500c0 -67 19 -102 78 -102s75 35 75 103v499h125v-499c0 -128 -62 -203 -202 -203z" />
    <glyph glyph-name="V" unicode="V" horiz-adv-x="462" 
d="M154 0l-144 693h127l83 -434c11 -57 14 -118 14 -118h2s4 58 15 118l80 434h121l-147 -693h-151z" />
    <glyph glyph-name="W" unicode="W" horiz-adv-x="659" 
d="M120 0l-108 693h126l52 -396c5 -39 11 -118 11 -118h3s5 69 12 118l62 396h115l59 -394c6 -42 13 -121 13 -121h3s6 67 13 121l52 394h114l-110 -693h-136l-56 358c-10 63 -12 126 -12 126h-2s-4 -68 -13 -125l-57 -359h-141z" />
    <glyph glyph-name="X" unicode="X" horiz-adv-x="474" 
d="M14 0l147 352l-134 341h138l54 -154c16 -45 28 -94 28 -94h2s10 51 25 94l52 154h126l-129 -331l137 -362h-134l-62 181c-18 52 -26 86 -26 86h-3s-12 -47 -28 -89l-67 -178h-126z" />
    <glyph glyph-name="Y" unicode="Y" horiz-adv-x="448" 
d="M161 0v257l-154 436h135l62 -199c21 -68 28 -115 28 -115h2s8 48 28 115l60 199h119l-152 -434v-259h-128z" />
    <glyph glyph-name="Z" unicode="Z" horiz-adv-x="395" 
d="M23 0v91l207 499v3h-195v100h337v-92l-210 -498v-3h209v-100h-348z" />
    <glyph glyph-name="a" unicode="a" horiz-adv-x="392" 
d="M151 -7c-84 0 -135 52 -135 152c0 97 49 142 144 160l78 14v38c0 56 -18 78 -82 78c-41 0 -81 -9 -103 -18v84c29 15 80 30 148 30c112 0 156 -50 156 -154v-377h-98l-9 31h-4c-19 -20 -52 -38 -95 -38zM191 77c23 0 38 7 47 14v150l-40 -5c-43 -5 -63 -28 -63 -77
c0 -55 15 -82 56 -82z" />
    <glyph glyph-name="b" unicode="b" 
d="M200 -7c-68 0 -134 14 -163 29v708h118v-237h3c20 17 55 38 103 38c86 0 144 -54 144 -223v-50c0 -184 -66 -265 -205 -265zM204 79c50 0 79 33 79 159v60c0 113 -22 136 -69 136c-28 0 -48 -10 -59 -16v-333c10 -3 29 -6 49 -6z" />
    <glyph glyph-name="c" unicode="c" horiz-adv-x="335" 
d="M215 -7c-127 0 -193 69 -193 248v40c0 178 74 250 200 250c43 0 75 -9 95 -21v-93c-19 8 -45 19 -80 19c-72 0 -93 -52 -93 -143v-52c0 -113 29 -152 94 -152c37 0 66 13 83 22v-89c-21 -15 -59 -29 -106 -29z" />
    <glyph glyph-name="d" unicode="d" 
d="M179 -7c-97 0 -156 60 -156 245v37c0 167 54 256 175 256c28 0 58 -6 75 -17v216h119v-730h-103l-7 36h-3c-20 -21 -55 -43 -100 -43zM217 86c23 0 42 9 56 19v327c-10 4 -28 9 -49 9c-62 0 -79 -46 -79 -158v-43c0 -103 17 -154 72 -154z" />
    <glyph glyph-name="e" unicode="e" horiz-adv-x="398" 
d="M231 -7c-143 0 -209 80 -209 251v32c0 165 54 255 182 255c123 0 173 -70 173 -250v-59h-234c1 -94 29 -137 107 -137c43 0 86 17 113 31v-81c-25 -20 -76 -42 -132 -42zM203 443c-48 0 -60 -36 -60 -141h120c0 106 -14 141 -60 141z" />
    <glyph glyph-name="f" unicode="f" horiz-adv-x="261" 
d="M59 0v434h-49v90h49v62c0 105 47 151 132 151c35 0 63 -8 77 -15v-79c-9 3 -24 4 -37 4c-43 0 -53 -27 -53 -74v-49h73v-90h-73v-434h-119z" />
    <glyph glyph-name="g" unicode="g" horiz-adv-x="399" 
d="M187 -189c-121 0 -183 44 -183 118c0 58 37 89 82 107v4c-29 11 -54 36 -54 80c0 45 26 74 55 97c-30 18 -64 62 -64 128v23c0 103 70 163 167 163c27 0 49 -3 63 -7h139v-81h-55c9 -14 20 -38 20 -73v-20c0 -105 -65 -162 -163 -162c-22 0 -42 3 -55 7
c-7 -7 -12 -21 -12 -33c0 -20 11 -31 39 -31h73c110 0 156 -56 156 -151c0 -107 -69 -169 -208 -169zM191 -109c68 0 94 25 94 74c0 36 -19 57 -64 57h-71c-22 -10 -41 -33 -41 -68c0 -41 29 -63 82 -63zM191 268c35 0 54 24 54 79v20c0 62 -21 84 -54 84
c-37 0 -55 -24 -55 -82v-20c0 -58 22 -81 55 -81z" />
    <glyph glyph-name="h" unicode="h" horiz-adv-x="425" 
d="M37 0v730h118v-245h3c27 23 65 46 120 46c70 0 111 -37 111 -120v-411h-118v392c0 31 -18 41 -47 41c-31 0 -56 -13 -69 -20v-413h-118z" />
    <glyph glyph-name="i" unicode="i" horiz-adv-x="193" 
d="M38 0v524h118v-524h-118zM37 597v110h119v-110h-119z" />
    <glyph glyph-name="j" unicode="j" horiz-adv-x="193" 
d="M28 -194c-34 0 -59 7 -72 15v79c7 -1 19 -2 31 -2c36 0 50 18 50 67v559h119v-569c0 -89 -33 -149 -128 -149zM36 597v110h120v-110h-120z" />
    <glyph glyph-name="k" unicode="k" horiz-adv-x="397" 
d="M155 730v-730h-118v730h118zM156 275l111 249h121l-115 -241l120 -283h-127z" />
    <glyph glyph-name="l" unicode="l" horiz-adv-x="192" 
d="M37 0v730h118v-730h-118z" />
    <glyph glyph-name="m" unicode="m" horiz-adv-x="635" 
d="M37 0v524h114v-40h3c25 22 64 47 116 47c50 0 79 -17 95 -53h3c31 27 68 53 125 53c65 0 106 -33 106 -120v-411h-118v394c0 25 -11 39 -42 39c-25 0 -47 -10 -62 -22v-411h-118v394c0 27 -13 39 -42 39c-28 0 -47 -10 -62 -20v-413h-118z" />
    <glyph glyph-name="n" unicode="n" horiz-adv-x="425" 
d="M37 0v524h114v-40h3c29 23 67 47 124 47c71 0 111 -37 111 -120v-411h-118v392c0 31 -18 41 -47 41c-31 0 -56 -13 -69 -20v-413h-118z" />
    <glyph glyph-name="o" unicode="o" horiz-adv-x="424" 
d="M212 -7c-133 0 -190 94 -190 249v44c0 153 68 245 189 245c130 0 191 -82 191 -245v-43c0 -156 -66 -250 -190 -250zM213 86c50 0 67 56 67 136v80c0 91 -19 136 -69 136c-53 0 -67 -55 -67 -136v-80c0 -82 16 -136 69 -136z" />
    <glyph glyph-name="p" unicode="p" 
d="M37 -187v711h114v-39h3c20 21 57 46 107 46c99 0 144 -66 144 -228v-47c0 -175 -51 -263 -173 -263c-35 0 -63 10 -77 18v-198h-118zM207 79c58 0 76 49 76 160v55c0 100 -14 139 -67 139c-28 0 -49 -10 -61 -20v-322c8 -5 29 -12 52 -12z" />
    <glyph glyph-name="q" unicode="q" horiz-adv-x="427" 
d="M273 26h-3c-21 -17 -57 -33 -96 -33c-86 0 -151 53 -151 229v49c0 181 69 260 213 260c67 0 130 -15 156 -29v-689h-119v213zM226 440c-50 0 -81 -32 -81 -159v-57c0 -109 20 -138 71 -138c25 0 46 10 57 18v328c-9 4 -25 8 -47 8z" />
    <glyph glyph-name="r" unicode="r" horiz-adv-x="277" 
d="M37 0v524h114v-53h3c22 34 53 60 92 60c9 0 19 -1 24 -2v-114c-5 1 -20 2 -32 2c-33 0 -60 -8 -83 -26v-391h-118z" />
    <glyph glyph-name="s" unicode="s" horiz-adv-x="316" 
d="M132 -7c-49 0 -88 10 -114 26v88c24 -10 58 -22 98 -22c54 0 72 23 72 65c0 36 -18 50 -55 67l-30 15c-48 23 -87 64 -87 142c0 106 63 157 163 157c44 0 76 -7 97 -17v-88c-22 8 -52 15 -86 15c-41 0 -65 -14 -65 -54c0 -31 15 -43 46 -58l33 -17c55 -26 96 -58 96 -146
c0 -108 -53 -173 -168 -173z" />
    <glyph glyph-name="t" unicode="t" horiz-adv-x="273" 
d="M173 -7c-75 0 -115 30 -115 118v323h-47v90h47v118h119v-118h77v-90h-77v-302c0 -35 12 -45 41 -45c17 0 29 3 38 6v-78c-13 -11 -46 -22 -83 -22z" />
    <glyph glyph-name="u" unicode="u" horiz-adv-x="421" 
d="M148 -7c-82 0 -112 52 -112 132v399h118v-391c0 -24 10 -41 47 -41c26 0 56 13 65 20v412h118v-524h-102l-9 41h-4c-23 -20 -65 -48 -121 -48z" />
    <glyph glyph-name="v" unicode="v" horiz-adv-x="398" 
d="M134 0l-129 524h124l59 -299c9 -46 14 -93 14 -93h3s6 47 15 93l58 299h115l-128 -524h-131z" />
    <glyph glyph-name="w" unicode="w" horiz-adv-x="569" 
d="M109 0l-103 524h117l41 -250c11 -66 15 -118 15 -118h2s6 52 17 118l42 250h102l43 -250c12 -69 17 -118 17 -118h3s5 53 14 117l37 251h107l-98 -524h-120l-40 210c-12 65 -19 129 -19 129h-2s-8 -68 -18 -129l-36 -210h-121z" />
    <glyph glyph-name="x" unicode="x" horiz-adv-x="393" 
d="M7 0l115 268l-109 256h128l39 -103c16 -43 25 -76 25 -76h1s10 38 23 76l35 103h113l-103 -253l112 -271h-126l-43 116c-15 41 -25 76 -25 76h-1s-12 -39 -26 -77l-44 -115h-114z" />
    <glyph glyph-name="y" unicode="y" horiz-adv-x="394" 
d="M98 -194c-23 0 -47 4 -67 11v83c11 -2 30 -4 43 -4c36 0 52 14 65 67l9 31l-144 530h125l59 -268c12 -52 16 -94 16 -94h2s4 41 14 92l55 270h115l-143 -572c-24 -98 -59 -146 -149 -146z" />
    <glyph glyph-name="z" unicode="z" horiz-adv-x="347" 
d="M21 0v86l169 344v3h-163v91h300v-79l-176 -351v-3h173v-91h-303z" />
    <glyph glyph-name="quotedblleft" unicode="&#x201c;" horiz-adv-x="325" 
d="M16 495l42 198h90l-18 -198h-114zM167 495l42 198h90l-18 -198h-114z" />
    <glyph glyph-name="quotedblright" unicode="&#x201d;" horiz-adv-x="325" 
d="M26 495l19 198h113l-42 -198h-90zM176 495l19 198h113l-42 -198h-90z" />
    <glyph glyph-name="quoteleft" unicode="&#x2018;" horiz-adv-x="174" 
d="M16 495l42 198h90l-18 -198h-114z" />
    <glyph glyph-name="quoteright" unicode="&#x2019;" horiz-adv-x="174" 
d="M26 495l19 198h113l-42 -198h-90z" />
    </font>
</defs>
</svg>
