<?xml version="1.0" standalone="no"?>
<!DOCTYPE svg PUBLIC "-//W3C//DTD SVG 1.1//EN" "http://www.w3.org/Graphics/SVG/1.1/DTD/svg11.dtd" >
<svg>
<metadata>
Created by FontForge 20120731 at Mon May 18 17:46:47 2026
 By fw_worker
(c)2008-12 Paul Barnes and Christian Schwartz, under exclusive license to Schwartzco Inc./Commercial Type. All rights reserved.
</metadata>
<defs>
<font id="GuardianSansXCond-Black" horiz-adv-x="461" >
  <font-face 
    font-family="Guardian Sans XCond Black"
    font-weight="800"
    font-stretch="extra-condensed"
    units-per-em="1000"
    panose-1="2 11 10 3 3 2 2 6 2 3"
    ascent="813"
    descent="-187"
    x-height="539"
    cap-height="693"
    bbox="-47 -194 713 738"
    underline-thickness="50"
    underline-position="-50"
    stemh="144"
    stemv="173"
    unicode-range="U+0020-201D"
  />
<missing-glyph horiz-adv-x="362" 
 />
    <glyph glyph-name=".notdef" horiz-adv-x="362" 
 />
    <glyph glyph-name="space" unicode=" " horiz-adv-x="106" 
 />
    <glyph glyph-name="exclam" unicode="!" horiz-adv-x="241" 
d="M47 208l-26 485h199l-27 -485h-146zM40 0v154h161v-154h-161z" />
    <glyph glyph-name="quotedbl" unicode="&#x22;" horiz-adv-x="363" 
d="M30 473l-16 220h153l-14 -220h-123zM211 473l-16 220h153l-14 -220h-123z" />
    <glyph glyph-name="quotesingle" unicode="'" horiz-adv-x="181" 
d="M30 473l-16 220h153l-14 -220h-123z" />
    <glyph glyph-name="comma" unicode="," horiz-adv-x="205" 
d="M11 -67l13 226h167l-47 -226h-133z" />
    <glyph glyph-name="hyphen" unicode="-" horiz-adv-x="248" 
d="M17 220v135h214v-135h-214z" />
    <glyph glyph-name="period" unicode="." horiz-adv-x="199" 
d="M19 0v158h161v-158h-161z" />
    <glyph glyph-name="zero" unicode="0" horiz-adv-x="527" 
d="M265 -7c-160 0 -244 97 -244 326v60c0 216 80 322 239 322c152 0 245 -82 245 -317v-60c0 -233 -95 -331 -240 -331zM265 136c33 0 40 33 40 137v149c0 110 -13 135 -44 135s-40 -32 -40 -134v-148c0 -104 9 -139 44 -139z" />
    <glyph glyph-name="one" unicode="1" horiz-adv-x="312" 
d="M85 0v510l-77 -6v113l152 77h112v-694h-187z" />
    <glyph glyph-name="two" unicode="2" horiz-adv-x="408" 
d="M15 0v130l105 150c44 62 68 106 68 170c0 67 -31 98 -90 98c-36 0 -63 -9 -79 -17v140c25 13 83 30 158 30c143 0 212 -79 212 -219c0 -101 -36 -178 -108 -259l-67 -78v-3h176v-142h-375z" />
    <glyph glyph-name="three" unicode="3" horiz-adv-x="410" 
d="M165 -7c-77 0 -126 14 -154 33v130c25 -10 61 -17 92 -17c65 0 87 21 87 79c0 52 -20 69 -71 69h-41v129h44c51 0 70 22 70 69c0 45 -18 70 -89 70c-27 0 -59 -5 -81 -12v130c29 16 78 28 144 28c142 0 217 -57 217 -175c0 -98 -42 -144 -104 -162v-4
c71 -13 115 -50 115 -161c0 -136 -85 -206 -229 -206z" />
    <glyph glyph-name="four" unicode="4" horiz-adv-x="479" 
d="M223 0v125h-215v125l212 444h188v-434h61v-135h-61v-125h-185zM132 260h93v192h-3l-90 -189v-3z" />
    <glyph glyph-name="five" unicode="5" horiz-adv-x="407" 
d="M162 -7c-72 0 -118 14 -152 29v133c25 -8 58 -13 85 -13c67 0 91 29 91 85c0 55 -21 84 -95 84c-18 0 -42 -1 -62 -4l15 386h327v-144h-189l-4 -113c12 2 25 4 45 4c114 0 166 -69 166 -208c0 -154 -86 -239 -227 -239z" />
    <glyph glyph-name="six" unicode="6" horiz-adv-x="493" 
d="M256 121c27 0 35 25 35 100c0 76 -9 99 -43 99c-13 0 -26 -5 -30 -7v-74c0 -94 9 -118 38 -118zM258 -7c-159 0 -236 98 -236 299v61c0 258 102 348 280 348c71 0 117 -12 137 -23v-139c-21 7 -59 14 -100 14c-92 0 -121 -34 -121 -136c21 12 50 24 102 24
c104 0 161 -64 161 -207c0 -142 -61 -241 -223 -241z" />
    <glyph glyph-name="seven" unicode="7" horiz-adv-x="402" 
d="M33 0l155 538v5h-181v150h380v-132l-148 -561h-206z" />
    <glyph glyph-name="eight" unicode="8" horiz-adv-x="479" 
d="M227 -7c-145 0 -218 62 -218 175c0 78 41 127 108 159c-37 30 -93 82 -93 181c0 119 77 193 225 193c138 0 205 -68 205 -180c0 -75 -49 -123 -95 -141c74 -44 111 -94 111 -188c0 -135 -87 -199 -243 -199zM227 117c32 0 50 22 50 59c0 38 -21 62 -66 87
c-16 -17 -36 -43 -36 -86c0 -38 19 -60 52 -60zM265 435c14 16 29 42 29 80c0 36 -12 60 -42 60c-27 0 -41 -20 -41 -54c0 -44 20 -66 54 -86z" />
    <glyph glyph-name="nine" unicode="9" horiz-adv-x="493" 
d="M191 -7c-73 0 -121 14 -142 25v139c22 -8 62 -16 105 -16c93 0 121 34 120 135c-19 -11 -49 -23 -87 -23c-114 0 -175 63 -175 207c0 137 60 241 228 241c161 0 231 -96 231 -294v-67c0 -258 -98 -347 -280 -347zM246 373c13 0 25 6 28 7v75c0 94 -7 118 -35 118
s-37 -24 -37 -100s10 -100 44 -100z" />
    <glyph glyph-name="question" unicode="?" horiz-adv-x="355" 
d="M60 208v41c0 68 4 98 57 155c31 33 45 48 45 91s-22 66 -82 66c-30 0 -50 -4 -69 -8v127c28 11 84 21 144 21c123 0 187 -64 187 -180c0 -87 -27 -129 -74 -177c-46 -46 -63 -53 -63 -105v-31h-145zM53 0v154h161v-154h-161z" />
    <glyph glyph-name="A" unicode="A" horiz-adv-x="512" 
d="M1 0l138 693h231l141 -693h-185l-18 107h-119l-16 -107h-172zM248 518h-3s-3 -68 -16 -148l-22 -136h82l-23 137c-14 83 -18 147 -18 147z" />
    <glyph glyph-name="B" unicode="B" horiz-adv-x="502" 
d="M30 0v693h256c119 0 182 -57 182 -175c0 -90 -38 -139 -109 -154v-3c79 -13 132 -49 132 -172c0 -115 -64 -189 -208 -189h-253zM217 126h27c37 0 52 23 52 90c0 65 -16 84 -54 84h-25v-174zM217 413h27c30 0 46 14 46 80c0 62 -16 77 -46 77h-27v-157z" />
    <glyph glyph-name="C" unicode="C" horiz-adv-x="440" 
d="M287 -8c-176 0 -266 81 -266 319v66c0 256 118 324 272 324c55 0 105 -12 129 -23v-139c-19 7 -49 12 -79 12c-85 0 -116 -36 -116 -166v-64c0 -125 23 -179 109 -179c40 0 70 8 89 15v-138c-23 -13 -79 -27 -138 -27z" />
    <glyph glyph-name="D" unicode="D" horiz-adv-x="532" 
d="M30 0v693h216c162 0 266 -63 266 -303v-75c0 -235 -112 -315 -266 -315h-216zM221 142h27c46 0 65 46 65 162v89c0 119 -19 158 -64 158h-28v-409z" />
    <glyph glyph-name="E" unicode="E" horiz-adv-x="422" 
d="M30 0v693h366v-142h-175v-128h153v-139h-153v-142h185v-142h-376z" />
    <glyph glyph-name="F" unicode="F" horiz-adv-x="408" 
d="M30 0v693h363v-142h-172v-153h148v-139h-148v-259h-191z" />
    <glyph glyph-name="G" unicode="G" horiz-adv-x="516" 
d="M283 -7c-168 0 -262 65 -262 325v53c0 242 97 330 285 330c81 0 135 -16 157 -28v-144c-26 10 -66 20 -115 20c-99 0 -126 -45 -126 -146v-166c0 -74 16 -103 62 -103c14 0 24 2 29 4v129h-43v131h222v-367c-38 -18 -118 -38 -209 -38z" />
    <glyph glyph-name="H" unicode="H" horiz-adv-x="530" 
d="M30 0v693h191v-265h88v265h191v-693h-191v285h-88v-285h-191z" />
    <glyph glyph-name="I" unicode="I" horiz-adv-x="251" 
d="M30 0v693h191v-693h-191z" />
    <glyph glyph-name="J" unicode="J" horiz-adv-x="344" 
d="M137 -7c-53 0 -97 9 -123 23v135c10 -1 30 -5 48 -5c44 0 63 14 63 62v485h190v-515c0 -111 -43 -185 -178 -185z" />
    <glyph glyph-name="K" unicode="K" horiz-adv-x="520" 
d="M30 0v693h191v-294l103 294h193l-125 -320l133 -373h-208l-96 319v-319h-191z" />
    <glyph glyph-name="L" unicode="L" horiz-adv-x="390" 
d="M30 0v693h191v-551h156v-142h-347z" />
    <glyph glyph-name="M" unicode="M" horiz-adv-x="679" 
d="M30 0v693h239l47 -236c17 -83 25 -148 25 -148h2s8 71 23 148l47 236h236v-693h-173v210c0 122 10 279 10 279h-2s-23 -132 -43 -236l-50 -253h-119l-50 251c-14 73 -46 237 -46 237h-2s8 -140 8 -278v-210h-152z" />
    <glyph glyph-name="N" unicode="N" horiz-adv-x="528" 
d="M30 0v693h192l84 -256c21 -63 43 -153 43 -153h2s-10 65 -10 188v221h157v-693h-180l-82 238c-27 79 -60 205 -60 205h-2s13 -78 13 -241v-202h-157z" />
    <glyph glyph-name="O" unicode="O" horiz-adv-x="546" 
d="M273 -8c-163 0 -252 98 -252 326v61c0 218 95 322 249 322c156 0 255 -81 255 -317v-62c0 -231 -101 -330 -252 -330zM273 136c40 0 49 34 49 138v143c0 111 -12 140 -51 140c-40 0 -47 -35 -47 -137v-143c0 -105 8 -141 49 -141z" />
    <glyph glyph-name="P" unicode="P" horiz-adv-x="502" 
d="M30 0v693h250c154 0 210 -68 210 -227c0 -166 -55 -240 -211 -240h-58v-226h-191zM221 354h24c36 0 51 26 51 103c0 78 -15 100 -51 100h-24v-203z" />
    <glyph glyph-name="Q" unicode="Q" horiz-adv-x="543" 
d="M500 -91l-243 72c-132 37 -236 84 -236 337v61c0 218 93 322 248 322c157 0 255 -81 255 -317v-62c0 -149 -44 -220 -111 -246l125 -25zM272 132c41 0 49 34 49 138v147c0 111 -12 140 -51 140s-46 -35 -46 -137v-147c0 -105 7 -141 48 -141z" />
    <glyph glyph-name="R" unicode="R" horiz-adv-x="509" 
d="M30 0v693h248c144 0 210 -60 210 -213c0 -91 -30 -143 -70 -167v-4l93 -309h-191l-67 247h-32v-247h-191zM218 369h27c37 0 48 30 48 96c0 65 -10 94 -50 94h-25v-190z" />
    <glyph glyph-name="S" unicode="S" horiz-adv-x="419" 
d="M174 -7c-58 0 -118 11 -154 30v142c22 -9 71 -25 121 -25c54 0 81 15 81 56c0 39 -15 52 -54 71l-37 19c-67 33 -115 92 -115 201c0 144 78 214 224 214c70 0 107 -9 133 -21v-143c-25 10 -65 19 -109 19s-66 -11 -66 -50c0 -35 17 -43 49 -59l37 -18
c83 -39 121 -88 121 -204c0 -154 -77 -232 -231 -232z" />
    <glyph glyph-name="T" unicode="T" horiz-adv-x="442" 
d="M126 0v551h-114v142h418v-142h-114v-551h-190z" />
    <glyph glyph-name="U" unicode="U" horiz-adv-x="523" 
d="M263 -8c-181 0 -236 76 -236 216v485h191v-492c0 -43 7 -64 46 -64s46 22 46 64v492h186v-485c0 -140 -73 -216 -233 -216z" />
    <glyph glyph-name="V" unicode="V" horiz-adv-x="513" 
d="M143 0l-139 693h187l57 -354c12 -72 15 -152 15 -152h3s3 75 15 152l54 354h174l-137 -693h-229z" />
    <glyph glyph-name="W" unicode="W" horiz-adv-x="719" 
d="M115 0l-109 693h187l32 -276c7 -62 14 -164 14 -164h3s8 94 18 164l38 276h146l36 -275c9 -71 19 -165 19 -165h3s6 84 15 165l31 275h165l-110 -693h-189l-35 247c-10 73 -14 145 -14 145h-2s-6 -72 -16 -144l-33 -248h-199z" />
    <glyph glyph-name="X" unicode="X" horiz-adv-x="538" 
d="M8 0l132 348l-119 345h207l33 -127c12 -46 20 -99 20 -99h2s6 51 18 99l31 127h187l-118 -327l129 -366h-203l-42 152c-16 59 -20 94 -20 94h-3s-5 -37 -21 -93l-45 -153h-188z" />
    <glyph glyph-name="Y" unicode="Y" horiz-adv-x="499" 
d="M155 0v252l-154 441h200l37 -142c17 -64 24 -134 24 -134h2s8 66 25 134l35 142h174l-153 -441v-252h-190z" />
    <glyph glyph-name="Z" unicode="Z" horiz-adv-x="429" 
d="M21 0v135l176 413v3h-170v142h377v-135l-176 -413v-3h183v-142h-390z" />
    <glyph glyph-name="a" unicode="a" horiz-adv-x="433" 
d="M151 -7c-88 0 -141 56 -141 158c0 103 55 147 154 167l74 14v19c0 43 -18 59 -76 59c-41 0 -91 -7 -113 -14v118c33 15 95 32 181 32c132 0 181 -54 181 -174v-372h-144l-11 33h-4c-17 -21 -49 -40 -101 -40zM214 108c11 0 19 3 24 7v118l-21 -1c-26 -2 -37 -18 -37 -57
c0 -46 7 -67 34 -67z" />
    <glyph glyph-name="b" unicode="b" horiz-adv-x="462" 
d="M217 -7c-79 0 -155 14 -194 35v703h173v-230h3c21 22 54 45 102 45c87 0 146 -62 146 -227v-50c0 -201 -76 -276 -230 -276zM223 107c35 0 45 24 45 130v61c0 96 -11 109 -39 109c-16 0 -27 -5 -32 -8v-288c5 -2 14 -4 26 -4z" />
    <glyph glyph-name="c" unicode="c" horiz-adv-x="349" 
d="M230 -7c-148 0 -215 73 -215 256v32c0 180 73 265 219 265c48 0 82 -7 102 -17v-131c-17 7 -39 13 -65 13c-52 0 -78 -27 -78 -110v-53c0 -88 20 -119 77 -119c30 0 51 5 69 13v-123c-20 -14 -62 -26 -109 -26z" />
    <glyph glyph-name="d" unicode="d" 
d="M172 -7c-94 0 -157 58 -157 248v43c0 192 66 262 179 262c30 0 56 -6 71 -15v200h173v-731h-151l-8 36h-3c-19 -18 -48 -43 -104 -43zM236 124c13 0 23 3 29 8v286c-5 2 -13 5 -25 5c-38 0 -47 -26 -47 -129v-52c0 -93 11 -118 43 -118z" />
    <glyph glyph-name="e" unicode="e" horiz-adv-x="432" 
d="M252 -7c-161 0 -237 86 -237 262v25c0 168 63 266 208 266c148 0 196 -84 196 -264v-65h-230c2 -66 24 -98 98 -98c43 0 88 16 114 27v-111c-33 -22 -88 -42 -149 -42zM224 426c-26 0 -34 -16 -35 -111h70c0 94 -9 111 -35 111z" />
    <glyph glyph-name="f" unicode="f" horiz-adv-x="301" 
d="M51 0v415h-45v124h45v45c0 113 59 154 155 154c41 0 76 -7 94 -14v-110c-7 2 -18 3 -30 3c-36 0 -46 -20 -46 -53v-25h69v-124h-69v-415h-173z" />
    <glyph glyph-name="g" unicode="g" horiz-adv-x="445" 
d="M203 -191c-142 0 -206 41 -206 111c0 56 38 82 85 100v4c-31 11 -57 41 -57 89c0 51 29 85 63 108c-34 19 -73 63 -73 133v26c0 108 83 166 195 166c31 0 59 -4 74 -7h156v-105h-52c6 -10 13 -28 13 -55v-19c0 -109 -68 -167 -183 -167c-24 0 -45 2 -56 4
c-3 -4 -7 -13 -7 -21c0 -15 8 -22 30 -22h90c117 0 170 -56 170 -160c0 -122 -74 -185 -242 -185zM211 -84c56 0 78 16 78 49c0 29 -19 37 -51 37h-70c-13 -7 -24 -21 -24 -43c0 -31 23 -43 67 -43zM211 295c22 0 32 15 32 62v19c0 55 -11 67 -33 67c-24 0 -32 -16 -32 -65
v-19c0 -49 9 -64 33 -64z" />
    <glyph glyph-name="h" unicode="h" horiz-adv-x="457" 
d="M23 0v731h173v-235h3c23 22 58 50 119 50c73 0 117 -37 117 -128v-418h-173v381c0 20 -13 24 -30 24c-14 0 -30 -6 -36 -9v-396h-173z" />
    <glyph glyph-name="i" unicode="i" horiz-adv-x="220" 
d="M24 0v539h173v-539h-173zM23 582v142h174v-142h-174z" />
    <glyph glyph-name="j" unicode="j" horiz-adv-x="221" 
d="M44 -194c-43 0 -76 11 -91 19v109c6 -1 17 -2 26 -2c31 0 45 13 45 54v553h173v-570c0 -103 -41 -163 -153 -163zM23 582v142h175v-142h-175z" />
    <glyph glyph-name="k" unicode="k" horiz-adv-x="447" 
d="M196 731v-412l82 220h171l-102 -245l103 -294h-180l-74 247v-247h-173v731h173z" />
    <glyph glyph-name="l" unicode="l" horiz-adv-x="219" 
d="M23 0v731h173v-731h-173z" />
    <glyph glyph-name="m" unicode="m" horiz-adv-x="680" 
d="M23 0v539h168v-44h3c23 22 58 51 118 51c52 0 86 -18 103 -57h3c28 29 64 57 125 57c74 0 115 -36 115 -128v-418h-173v381c0 19 -10 24 -26 24c-13 0 -25 -5 -32 -10v-395h-173v381c0 19 -10 24 -26 24c-13 0 -25 -5 -32 -9v-396h-173z" />
    <glyph glyph-name="n" unicode="n" horiz-adv-x="457" 
d="M23 0v539h168v-44h3c23 23 60 51 122 51c76 0 119 -37 119 -128v-418h-173v381c0 20 -13 24 -30 24c-14 0 -30 -6 -36 -9v-396h-173z" />
    <glyph glyph-name="o" unicode="o" 
d="M231 -7c-150 0 -216 100 -216 258v43c0 164 81 252 214 252c146 0 217 -82 217 -251v-41c0 -171 -79 -261 -215 -261zM232 124c29 0 37 32 37 102v85c0 82 -12 104 -39 104c-30 0 -37 -28 -37 -104v-85c0 -75 9 -102 39 -102z" />
    <glyph glyph-name="p" unicode="p" 
d="M23 -187v726h168v-43h3c21 24 56 50 109 50c97 0 143 -62 143 -232v-43c0 -205 -62 -278 -185 -278c-32 0 -54 6 -65 11v-191h-173zM222 106c37 0 46 31 46 133v57c0 92 -9 110 -40 110c-15 0 -27 -5 -32 -10v-284c5 -2 13 -6 26 -6z" />
    <glyph glyph-name="q" unicode="q" 
d="M266 28h-3c-22 -23 -54 -35 -93 -35c-87 0 -155 59 -155 237v48c0 193 73 268 242 268c77 0 155 -15 182 -30v-703h-173v215zM239 421c-34 0 -46 -24 -46 -131v-58c0 -94 11 -108 41 -108c14 0 26 4 31 8v284c-5 2 -13 5 -26 5z" />
    <glyph glyph-name="r" unicode="r" horiz-adv-x="315" 
d="M23 0v539h168v-56h3c22 41 50 63 90 63c8 0 19 -1 22 -2v-168c-7 1 -25 2 -43 2c-24 0 -47 -3 -67 -14v-364h-173z" />
    <glyph glyph-name="s" unicode="s" horiz-adv-x="346" 
d="M143 -7c-54 0 -101 10 -129 28v119c26 -9 60 -21 100 -21c45 0 59 12 59 39c0 25 -17 31 -46 45l-29 14c-50 25 -87 68 -87 154c0 122 73 175 187 175c46 0 84 -5 112 -17v-120c-24 8 -60 13 -92 13c-30 0 -52 -4 -52 -32c0 -23 14 -29 39 -40l31 -14
c53 -24 97 -56 97 -153c0 -119 -55 -190 -190 -190z" />
    <glyph glyph-name="t" unicode="t" horiz-adv-x="305" 
d="M190 -7c-92 0 -139 32 -139 126v296h-44v124h44v117h173v-117h67v-124h-67v-256c0 -24 9 -33 34 -33c11 0 23 2 31 5v-116c-15 -11 -56 -22 -99 -22z" />
    <glyph glyph-name="u" unicode="u" horiz-adv-x="454" 
d="M142 -7c-80 0 -120 43 -120 139v407h173v-379c0 -19 10 -25 28 -25c14 0 29 6 35 9v395h173v-539h-152l-11 45h-4c-21 -21 -61 -52 -122 -52z" />
    <glyph glyph-name="v" unicode="v" horiz-adv-x="449" 
d="M127 0l-128 539h178l41 -267c5 -33 11 -92 11 -92h3s6 59 11 92l41 267h166l-128 -539h-195z" />
    <glyph glyph-name="w" unicode="w" horiz-adv-x="621" 
d="M105 0l-103 539h166l26 -184c10 -73 13 -136 13 -136h2s5 60 16 136l26 184h140l26 -184c10 -74 16 -136 16 -136h3s3 68 12 136l24 184h147l-100 -539h-166l-23 136c-11 66 -19 150 -19 150h-2s-9 -90 -18 -150l-21 -136h-165z" />
    <glyph glyph-name="x" unicode="x" horiz-adv-x="451" 
d="M2 0l105 279l-98 260h182l24 -84c13 -41 20 -89 20 -89h1c0 1 7 48 19 89l25 84h157l-94 -256l106 -283h-183l-30 100c-13 44 -22 89 -22 89h-1s-8 -45 -22 -89l-31 -100h-158z" />
    <glyph glyph-name="y" unicode="y" horiz-adv-x="438" 
d="M116 -194c-28 0 -58 4 -83 10v120c11 -2 30 -4 44 -4c33 0 52 9 61 40l5 19l-144 548h177l35 -193c11 -59 15 -132 15 -132h3s7 71 17 130l32 195h161l-141 -581c-26 -108 -72 -152 -182 -152z" />
    <glyph glyph-name="z" unicode="z" horiz-adv-x="371" 
d="M15 0v125l148 286v3h-145v125h340v-115l-157 -296v-3h153v-125h-339z" />
    <glyph glyph-name="quotedblleft" unicode="&#x201c;" horiz-adv-x="386" 
d="M12 473l45 220h129l-19 -220h-155zM195 473l45 220h129l-19 -220h-155z" />
    <glyph glyph-name="quotedblright" unicode="&#x201d;" horiz-adv-x="386" 
d="M18 473l19 220h154l-45 -220h-128zM200 473l19 220h154l-45 -220h-128z" />
    <glyph glyph-name="quoteleft" unicode="&#x2018;" horiz-adv-x="203" 
d="M12 473l45 220h129l-19 -220h-155z" />
    <glyph glyph-name="quoteright" unicode="&#x2019;" horiz-adv-x="203" 
d="M18 473l19 220h154l-45 -220h-128z" />
    </font>
</defs>
</svg>
