<?xml version="1.0" standalone="no"?>
<!DOCTYPE svg PUBLIC "-//W3C//DTD SVG 1.1//EN" "http://www.w3.org/Graphics/SVG/1.1/DTD/svg11.dtd" >
<svg>
<metadata>
Created by FontForge 20120731 at Mon May 18 17:53:08 2026
 By fw_worker
(c)2008-12 Paul Barnes and Christian Schwartz, under exclusive license to Schwartzco Inc./Commercial Type. All rights reserved.
</metadata>
<defs>
<font id="GuardianSansXCond-Regular" horiz-adv-x="402" >
  <font-face 
    font-family="Guardian Sans XCond Regular"
    font-weight="400"
    font-stretch="extra-condensed"
    units-per-em="1000"
    panose-1="2 11 5 3 3 2 2 6 2 3"
    ascent="812"
    descent="-188"
    x-height="513"
    cap-height="693"
    bbox="-43 -195 608 736"
    underline-thickness="50"
    underline-position="-50"
    stemh="66"
    stemv="76"
    unicode-range="U+0020-201D"
  />
<missing-glyph horiz-adv-x="348" 
 />
    <glyph glyph-name=".notdef" horiz-adv-x="348" 
 />
    <glyph glyph-name="space" unicode=" " horiz-adv-x="130" 
 />
    <glyph glyph-name="exclam" unicode="!" horiz-adv-x="203" 
d="M70 193l-12 500h87l-12 -500h-63zM59 0v94h86v-94h-86z" />
    <glyph glyph-name="quotedbl" unicode="&#x22;" horiz-adv-x="272" 
d="M45 512l-10 181h79l-10 -181h-59zM168 512l-10 181h79l-10 -181h-59z" />
    <glyph glyph-name="quotesingle" unicode="'" horiz-adv-x="149" 
d="M45 512l-10 181h79l-10 -181h-59z" />
    <glyph glyph-name="comma" unicode="," horiz-adv-x="177" 
d="M35 -92l19 192h85l-40 -192h-64z" />
    <glyph glyph-name="hyphen" unicode="-" horiz-adv-x="232" 
d="M43 241v67h146v-67h-146z" />
    <glyph glyph-name="period" unicode="." horiz-adv-x="186" 
d="M50 0v93h86v-93h-86z" />
    <glyph glyph-name="zero" unicode="0" horiz-adv-x="438" 
d="M221 -9c-123 0 -185 80 -185 323v64c0 212 49 324 181 324c129 0 185 -96 185 -318v-69c0 -200 -45 -324 -181 -324zM222 57c81 0 98 93 98 246v95c0 162 -29 238 -104 238s-98 -86 -98 -233v-94c0 -156 19 -252 104 -252z" />
    <glyph glyph-name="one" unicode="1" horiz-adv-x="247" 
d="M109 0v607l-91 -9v45l139 56h30v-699h-78z" />
    <glyph glyph-name="two" unicode="2" horiz-adv-x="364" 
d="M20 0v58l145 226c47 73 78 134 78 221c0 79 -30 128 -113 128c-45 0 -80 -13 -102 -24v63c27 17 68 30 128 30c114 0 169 -72 169 -190c0 -111 -34 -174 -91 -263l-123 -179v-3h221v-67h-312z" />
    <glyph glyph-name="three" unicode="3" horiz-adv-x="350" 
d="M139 -9c-60 0 -94 11 -121 30v65c22 -14 56 -27 96 -27c72 0 118 37 118 140c0 89 -27 130 -101 130h-44v68h44c56 0 90 40 90 117c0 91 -37 120 -104 120c-39 0 -69 -10 -86 -18v62c22 13 57 24 111 24c103 0 159 -63 159 -170c0 -104 -40 -142 -95 -160v-3
c67 -15 108 -60 108 -172c0 -131 -66 -206 -175 -206z" />
    <glyph glyph-name="four" unicode="4" horiz-adv-x="394" 
d="M236 0v161h-226v57l234 475h69v-465h69v-67h-69v-161h-77zM84 228h152v303h-3l-149 -300v-3z" />
    <glyph glyph-name="five" unicode="5" horiz-adv-x="346" 
d="M136 -9c-51 0 -93 10 -116 24v64c23 -11 52 -21 93 -21c93 0 121 54 121 154c0 94 -30 137 -118 137c-29 0 -57 -4 -79 -8l16 352h251v-68h-184l-10 -211c9 1 24 3 41 3c113 0 165 -62 165 -205c0 -131 -58 -221 -180 -221z" />
    <glyph glyph-name="six" unicode="6" 
d="M212 59c53 0 78 52 78 151c0 86 -18 146 -89 146c-40 0 -73 -19 -83 -26v-50c0 -152 31 -221 94 -221zM211 -9c-126 0 -175 113 -175 290v68c0 280 91 353 220 353c38 0 77 -10 92 -22v-62c-17 7 -52 16 -86 16c-72 0 -144 -24 -144 -247c27 23 61 39 108 39
c106 0 146 -87 146 -209c0 -139 -58 -226 -161 -226z" />
    <glyph glyph-name="seven" unicode="7" horiz-adv-x="306" 
d="M49 0l164 621v4h-204v68h287v-65l-165 -628h-82z" />
    <glyph glyph-name="eight" unicode="8" horiz-adv-x="405" 
d="M199 -9c-107 0 -171 67 -171 173c0 92 46 156 106 194c-49 39 -90 88 -90 175c0 97 61 169 160 169c104 0 156 -61 156 -166c0 -84 -48 -147 -94 -177c60 -37 111 -91 111 -184c0 -92 -53 -184 -178 -184zM200 59c64 0 95 48 95 106c0 69 -38 113 -118 158
c-36 -30 -71 -81 -71 -153s37 -111 94 -111zM221 392c42 41 60 83 60 141c0 62 -24 101 -79 101c-49 0 -78 -35 -78 -97s29 -98 97 -145z" />
    <glyph glyph-name="nine" unicode="9" 
d="M147 -9c-39 0 -78 12 -93 23v62c17 -6 56 -17 87 -17c83 0 143 23 143 246c-27 -23 -60 -39 -104 -39c-106 0 -150 88 -150 211c0 146 61 225 168 225c136 0 168 -116 168 -290v-69c0 -280 -80 -352 -219 -352zM203 335c40 0 71 19 81 26v52c0 154 -22 221 -87 221
c-57 0 -85 -46 -85 -151c0 -87 20 -148 91 -148z" />
    <glyph glyph-name="question" unicode="?" horiz-adv-x="305" 
d="M81 193v65c0 71 19 92 73 154c37 42 48 70 48 124c0 76 -41 98 -100 98c-38 0 -63 -7 -84 -14v64c20 9 62 18 106 18c102 0 160 -55 160 -162c0 -75 -19 -114 -77 -179c-45 -51 -53 -63 -53 -111v-57h-73zM77 0v94h84v-94h-84z" />
    <glyph glyph-name="A" unicode="A" horiz-adv-x="434" 
d="M14 0l153 693h97l156 -693h-77l-42 187h-174l-40 -187h-73zM216 604h-3s-7 -57 -15 -93l-56 -258h145l-57 258c-8 36 -14 93 -14 93z" />
    <glyph glyph-name="B" unicode="B" horiz-adv-x="412" 
d="M55 0v693h135c137 0 178 -63 178 -170c0 -84 -28 -140 -100 -156v-4c73 -8 120 -48 120 -167c0 -124 -55 -196 -199 -196h-134zM133 67h48c102 0 125 47 125 135c0 96 -38 124 -121 124h-52v-259zM133 392h38c79 0 118 33 118 121c0 87 -35 113 -110 113h-46v-234z" />
    <glyph glyph-name="C" unicode="C" horiz-adv-x="399" 
d="M255 -9c-141 0 -219 85 -219 313v79c0 251 101 319 226 319c50 0 85 -13 108 -30v-65c-32 16 -66 27 -111 27c-85 0 -141 -51 -141 -247v-83c0 -161 36 -245 144 -245c45 0 86 15 115 32v-65c-26 -20 -67 -35 -122 -35z" />
    <glyph glyph-name="D" unicode="D" horiz-adv-x="460" 
d="M55 0v693h134c153 0 237 -92 237 -311v-50c0 -207 -75 -332 -237 -332h-134zM133 67h58c103 0 153 75 153 250v65c0 189 -62 244 -161 244h-50v-559z" />
    <glyph glyph-name="E" unicode="E" horiz-adv-x="367" 
d="M55 0v693h290v-67h-212v-233h169v-67h-169v-259h215v-67h-293z" />
    <glyph glyph-name="F" unicode="F" horiz-adv-x="353" 
d="M55 0v693h283v-67h-205v-245h164v-67h-164v-314h-78z" />
    <glyph glyph-name="G" unicode="G" horiz-adv-x="451" 
d="M254 -9c-145 0 -218 74 -218 335v52c0 212 63 324 237 324c58 0 93 -15 113 -30v-65c-32 16 -67 27 -116 27c-118 0 -152 -78 -152 -249v-62c0 -184 34 -264 147 -264c27 0 52 5 65 10v220h-89v67h166v-332c-30 -15 -80 -33 -153 -33z" />
    <glyph glyph-name="H" unicode="H" horiz-adv-x="470" 
d="M55 0v693h78v-300h204v300h78v-693h-78v326h-204v-326h-78z" />
    <glyph glyph-name="I" unicode="I" horiz-adv-x="188" 
d="M55 0v693h78v-693h-78z" />
    <glyph glyph-name="J" unicode="J" horiz-adv-x="293" 
d="M102 -7c-37 0 -64 6 -86 15v63c20 -6 48 -10 78 -10c53 0 68 29 68 93v539h78v-537c0 -97 -30 -163 -138 -163z" />
    <glyph glyph-name="K" unicode="K" horiz-adv-x="430" 
d="M327 0l-177 355l176 338h86l-177 -327l181 -366h-89zM55 0v693h78v-693h-78z" />
    <glyph glyph-name="L" unicode="L" horiz-adv-x="352" 
d="M55 0v693h78v-626h200v-67h-278z" />
    <glyph glyph-name="M" unicode="M" horiz-adv-x="573" 
d="M55 0v693h115l89 -464c13 -67 26 -153 26 -153h2s12 87 25 153l87 464h119v-693h-74v426c0 34 7 187 7 187h-2s-17 -98 -26 -144l-97 -469h-87l-93 457c-4 21 -26 153 -26 153h-2s6 -150 6 -184v-426h-69z" />
    <glyph glyph-name="N" unicode="N" horiz-adv-x="468" 
d="M55 0v693h103l152 -462c17 -52 39 -145 39 -145h2s-9 61 -9 132v475h71v-693h-95l-149 444c-26 78 -49 163 -49 163h-2s9 -54 9 -155v-452h-72z" />
    <glyph glyph-name="O" unicode="O" horiz-adv-x="470" 
d="M236 -9c-129 0 -200 80 -200 321v67c0 211 56 323 196 323c137 0 202 -93 202 -318v-76c0 -198 -51 -317 -198 -317zM235 57c87 0 117 84 117 238v89c0 164 -27 252 -118 252s-116 -95 -116 -238v-86c0 -164 26 -255 117 -255z" />
    <glyph glyph-name="P" unicode="P" horiz-adv-x="401" 
d="M55 0v693h136c124 0 185 -54 185 -206c0 -133 -65 -208 -187 -208h-56v-279h-78zM133 346h49c81 0 112 44 112 141c0 107 -32 139 -112 139h-49v-280z" />
    <glyph glyph-name="Q" unicode="Q" horiz-adv-x="474" 
d="M451 -110l-285 112c-78 31 -130 100 -130 313v64c0 211 57 323 196 323c136 0 202 -93 202 -318v-73c0 -172 -38 -268 -120 -301l158 -49zM235 53c88 0 117 87 117 240v92c0 164 -30 252 -118 252s-116 -95 -116 -238v-89c0 -164 25 -257 117 -257z" />
    <glyph glyph-name="R" unicode="R" horiz-adv-x="412" 
d="M55 0v693h136c135 0 186 -53 186 -198c0 -109 -39 -157 -97 -178v-5l129 -312h-86l-117 296h-73v-296h-78zM133 363h59c72 0 103 40 103 128c0 98 -24 135 -110 135h-52v-263z" />
    <glyph glyph-name="S" unicode="S" horiz-adv-x="361" 
d="M150 -9c-59 0 -100 18 -125 34v68c33 -16 77 -34 119 -34c74 0 111 37 111 130c0 83 -24 108 -79 132l-38 17c-62 28 -110 75 -110 182c0 119 62 182 175 182c59 0 89 -14 108 -26v-67c-20 11 -60 25 -108 25c-70 0 -98 -34 -98 -109c0 -61 14 -88 65 -111l38 -17
c75 -33 126 -73 126 -199c0 -113 -47 -207 -184 -207z" />
    <glyph glyph-name="T" unicode="T" horiz-adv-x="368" 
d="M145 0v626h-134v67h343v-67h-131v-626h-78z" />
    <glyph glyph-name="U" unicode="U" horiz-adv-x="459" 
d="M229 -9c-128 0 -177 75 -177 189v513h78v-505c0 -87 27 -132 102 -132s98 44 98 133v504h77v-510c0 -118 -54 -192 -178 -192z" />
    <glyph glyph-name="V" unicode="V" horiz-adv-x="421" 
d="M164 0l-150 693h82l101 -496c9 -43 14 -92 14 -92h2s6 45 15 92l101 496h78l-154 -693h-89z" />
    <glyph glyph-name="W" unicode="W" horiz-adv-x="624" 
d="M126 0l-110 693h79l72 -490c3 -21 10 -89 10 -89h2s6 57 11 89l84 490h81l80 -486c4 -22 13 -95 13 -95h2s6 62 11 95l72 486h75l-115 -693h-91l-74 441c-11 63 -15 122 -15 122h-2s-5 -59 -15 -121l-76 -442h-94z" />
    <glyph glyph-name="X" unicode="X" horiz-adv-x="423" 
d="M18 0l159 355l-145 338h84l71 -176c16 -43 33 -82 33 -82h2s16 41 31 82l68 176h78l-138 -333l144 -360h-80l-78 203c-18 47 -31 76 -31 76h-3s-20 -48 -34 -81l-83 -198h-78z" />
    <glyph glyph-name="Y" unicode="Y" horiz-adv-x="408" 
d="M165 0v261l-153 432h83l82 -245c23 -69 30 -98 30 -98h2s10 33 32 100l80 243h75l-151 -429v-264h-80z" />
    <glyph glyph-name="Z" unicode="Z" horiz-adv-x="369" 
d="M24 0v57l231 566v3h-214v67h305v-58l-236 -565v-3h230v-67h-316z" />
    <glyph glyph-name="a" unicode="a" horiz-adv-x="360" 
d="M152 -7c-82 0 -131 48 -131 147c0 92 43 138 136 155l82 15v51c0 67 -20 93 -88 93c-41 0 -73 -10 -94 -20v57c25 15 66 29 121 29c97 0 137 -48 137 -139v-381h-62l-8 30h-4c-20 -20 -55 -37 -89 -37zM174 54c30 0 52 10 65 19v174l-56 -8c-56 -8 -83 -36 -83 -92
c0 -62 21 -93 74 -93z" />
    <glyph glyph-name="b" unicode="b" 
d="M187 -7c-60 0 -117 14 -140 24v712h76v-242h3c20 13 55 33 103 33c86 0 144 -48 144 -220v-51c0 -170 -60 -256 -186 -256zM189 57c62 0 105 39 105 182v59c0 126 -30 157 -91 157c-38 0 -65 -14 -80 -22v-368c13 -4 39 -8 66 -8z" />
    <glyph glyph-name="c" unicode="c" horiz-adv-x="325" 
d="M204 -7c-111 0 -176 65 -176 242v45c0 177 75 240 184 240c40 0 70 -11 89 -25v-64c-19 10 -49 24 -92 24c-87 0 -103 -70 -103 -169v-51c0 -133 36 -177 106 -177c44 0 78 18 95 28v-62c-21 -16 -56 -31 -103 -31z" />
    <glyph glyph-name="d" unicode="d" 
d="M184 -7c-99 0 -155 61 -155 243v31c0 149 45 253 172 253c26 0 60 -7 78 -19v228h76v-729h-65l-6 35h-3c-21 -22 -59 -42 -97 -42zM203 57c29 0 57 13 76 28v357c-14 7 -39 13 -67 13c-82 0 -104 -61 -104 -182v-34c0 -112 22 -182 95 -182z" />
    <glyph glyph-name="e" unicode="e" horiz-adv-x="370" 
d="M215 -7c-129 0 -187 75 -187 243v37c0 162 46 247 160 247c104 0 156 -60 156 -239v-53h-238c0 -118 34 -170 115 -170c43 0 85 18 112 35v-57c-19 -20 -66 -43 -118 -43zM186 456c-66 0 -80 -55 -80 -165h160c0 116 -18 165 -80 165z" />
    <glyph glyph-name="f" unicode="f" horiz-adv-x="229" 
d="M65 0v449h-51v64h51v74c0 99 38 149 115 149c29 0 52 -9 62 -16v-55c-11 4 -27 6 -42 6c-48 0 -59 -32 -59 -90v-68h78v-64h-78v-449h-76z" />
    <glyph glyph-name="g" unicode="g" horiz-adv-x="365" 
d="M176 -188c-105 0 -167 49 -167 125c0 63 36 98 81 116v4c-28 11 -53 30 -53 71c0 39 23 64 49 86c-27 17 -57 61 -57 124v20c0 100 62 162 145 162c25 0 41 -3 56 -7h126v-62h-58c13 -17 26 -45 26 -89v-20c0 -102 -63 -158 -147 -158c-21 0 -40 3 -55 10
c-9 -10 -16 -28 -16 -43c0 -24 12 -39 45 -39h62c104 0 144 -53 144 -141c0 -96 -65 -159 -181 -159zM175 -128c78 0 108 34 108 95c0 42 -18 75 -75 75h-71c-29 -12 -54 -45 -54 -89c0 -50 33 -81 92 -81zM177 244c44 0 73 31 73 92v27c0 68 -31 97 -73 97
c-47 0 -75 -30 -75 -95v-27c0 -64 34 -94 75 -94z" />
    <glyph glyph-name="h" unicode="h" horiz-adv-x="400" 
d="M47 0v729h76v-252h3c31 23 69 43 121 43c68 0 107 -38 107 -114v-406h-76v401c0 39 -21 54 -61 54c-43 0 -77 -18 -94 -29v-426h-76z" />
    <glyph glyph-name="i" unicode="i" horiz-adv-x="172" 
d="M48 0v513h76v-513h-76zM47 608v85h78v-85h-78z" />
    <glyph glyph-name="j" unicode="j" horiz-adv-x="169" 
d="M14 -195c-26 0 -44 6 -57 14v54c8 -1 20 -3 35 -3c40 0 54 23 54 78v565h76v-568c0 -80 -25 -140 -108 -140zM45 608v85h77v-85h-77z" />
    <glyph glyph-name="k" unicode="k" horiz-adv-x="357" 
d="M123 729v-729h-76v729h76zM133 265l125 248h82l-127 -239l135 -274h-85z" />
    <glyph glyph-name="l" unicode="l" horiz-adv-x="170" 
d="M47 0v729h76v-729h-76z" />
    <glyph glyph-name="m" unicode="m" horiz-adv-x="601" 
d="M47 0v513h73v-38h3c27 21 67 45 114 45c48 0 74 -17 90 -50h3c32 25 71 50 124 50c61 0 101 -32 101 -114v-406h-76v404c0 31 -13 51 -56 51c-35 0 -64 -15 -85 -31c1 -10 1 -27 1 -39v-385h-76v404c0 34 -16 51 -54 51c-40 0 -65 -15 -86 -29v-426h-76z" />
    <glyph glyph-name="n" unicode="n" horiz-adv-x="400" 
d="M47 0v513h73v-38h3c32 24 72 45 125 45c68 0 106 -37 106 -115v-405h-76v401c0 39 -21 54 -61 54c-43 0 -77 -18 -94 -29v-426h-76z" />
    <glyph glyph-name="o" unicode="o" horiz-adv-x="394" 
d="M197 -7c-119 0 -170 89 -170 241v45c0 145 58 241 170 241c116 0 170 -82 170 -241v-45c0 -144 -55 -241 -170 -241zM198 56c67 0 90 76 90 163v75c0 100 -24 163 -91 163c-71 0 -91 -77 -91 -163v-75c0 -88 22 -163 92 -163z" />
    <glyph glyph-name="p" unicode="p" 
d="M47 -188v701h73v-37h3c19 20 57 44 105 44c101 0 145 -69 145 -225v-51c0 -151 -42 -251 -164 -251c-37 0 -70 13 -86 24v-205h-76zM195 57c75 0 99 64 99 183v53c0 105 -17 162 -88 162c-37 0 -65 -15 -83 -29v-352c11 -7 42 -17 72 -17z" />
    <glyph glyph-name="q" unicode="q" horiz-adv-x="401" 
d="M279 25h-3c-20 -14 -60 -32 -99 -32c-85 0 -148 48 -148 223v49c0 172 65 255 190 255c60 0 110 -15 136 -29v-679h-76v213zM216 455c-63 0 -108 -37 -108 -181v-57c0 -119 27 -160 94 -160c34 0 62 14 77 25v363c-13 5 -33 10 -63 10z" />
    <glyph glyph-name="r" unicode="r" horiz-adv-x="247" 
d="M47 0v513h73v-52h3c22 30 55 59 94 59c10 0 19 -1 25 -3v-71c-5 1 -16 2 -23 2c-41 0 -71 -13 -96 -36v-412h-76z" />
    <glyph glyph-name="s" unicode="s" horiz-adv-x="292" 
d="M124 -7c-46 0 -79 10 -102 25v63c21 -10 55 -23 95 -23c61 0 82 33 82 86c0 46 -19 64 -61 84l-32 15c-49 23 -86 64 -86 135c0 89 55 142 144 142c43 0 70 -9 86 -18v-63c-22 9 -46 16 -82 16c-50 0 -75 -22 -75 -72c0 -38 15 -55 52 -73l32 -15c60 -28 97 -63 97 -143
c0 -100 -52 -159 -150 -159z" />
    <glyph glyph-name="t" unicode="t" horiz-adv-x="247" 
d="M160 -6c-61 0 -96 28 -96 110v345h-50v64h50v119h76v-119h86v-64h-86v-337c0 -45 15 -55 47 -55c20 0 33 4 43 7v-50c-12 -10 -39 -20 -70 -20z" />
    <glyph glyph-name="u" unicode="u" horiz-adv-x="395" 
d="M152 -7c-84 0 -106 59 -106 126v394h76v-401c0 -29 9 -54 62 -54c35 0 75 19 88 29v426h76v-513h-65l-7 38h-4c-25 -19 -69 -45 -120 -45z" />
    <glyph glyph-name="v" unicode="v" horiz-adv-x="359" 
d="M140 0l-130 513h81l73 -325c12 -55 17 -93 17 -93h3s5 38 17 93l73 325h75l-128 -513h-81z" />
    <glyph glyph-name="w" unicode="w" horiz-adv-x="529" 
d="M112 0l-102 513h78l53 -302c10 -61 16 -104 16 -104h2s7 45 18 104l54 302h73l56 -302c12 -66 17 -103 17 -103h3s6 41 16 102l50 303h73l-97 -513h-85l-53 267c-13 64 -18 113 -18 113h-2s-6 -49 -19 -113l-52 -267h-81z" />
    <glyph glyph-name="x" unicode="x" horiz-adv-x="348" 
d="M11 0l123 258l-117 255h85l49 -119c18 -44 29 -68 29 -68h1l26 69l46 118h77l-110 -252l117 -261h-81l-53 129c-17 42 -27 64 -27 64h-1s-16 -34 -30 -66l-55 -127h-79z" />
    <glyph glyph-name="y" unicode="y" horiz-adv-x="360" 
d="M84 -195c-20 0 -40 5 -55 13v54c11 -2 30 -4 42 -4c38 0 52 18 69 88l10 40l-142 517h84l79 -326c10 -41 13 -66 13 -66h2s8 43 13 64l73 328h78l-143 -566c-23 -90 -49 -142 -123 -142z" />
    <glyph glyph-name="z" unicode="z" horiz-adv-x="328" 
d="M25 0v55l186 391v3h-176v64h268v-52l-191 -394v-3h189v-64h-276z" />
    <glyph glyph-name="quotedblleft" unicode="&#x201c;" horiz-adv-x="278" 
d="M20 512l39 181h60l-18 -181h-81zM147 512l39 181h60l-18 -181h-81z" />
    <glyph glyph-name="quotedblright" unicode="&#x201d;" horiz-adv-x="278" 
d="M32 512l18 181h81l-39 -181h-60zM159 512l18 181h81l-39 -181h-60z" />
    <glyph glyph-name="quoteleft" unicode="&#x2018;" horiz-adv-x="151" 
d="M20 512l39 181h60l-18 -181h-81z" />
    <glyph glyph-name="quoteright" unicode="&#x2019;" horiz-adv-x="151" 
d="M32 512l18 181h81l-39 -181h-60z" />
    </font>
</defs>
</svg>
