<?xml version="1.0" standalone="no"?>
<!DOCTYPE svg PUBLIC "-//W3C//DTD SVG 1.1//EN" "http://www.w3.org/Graphics/SVG/1.1/DTD/svg11.dtd" >
<svg>
<metadata>
Created by FontForge 20120731 at Mon May 18 17:48:15 2026
 By fw_worker
(c)2008-12 Paul Barnes and Christian Schwartz, under exclusive license to Schwartzco Inc./Commercial Type. All rights reserved.
</metadata>
<defs>
<font id="GuardianSansXCond-Bold" horiz-adv-x="445" >
  <font-face 
    font-family="Guardian Sans XCond Bold"
    font-weight="700"
    font-stretch="extra-condensed"
    units-per-em="1000"
    panose-1="2 11 8 3 3 2 2 6 2 3"
    ascent="813"
    descent="-187"
    x-height="532"
    cap-height="693"
    bbox="-45 -194 673 737"
    underline-thickness="50"
    underline-position="-50"
    stemh="123"
    stemv="146"
    unicode-range="U+0020-201D"
  />
<missing-glyph horiz-adv-x="358" 
 />
    <glyph glyph-name=".notdef" horiz-adv-x="358" 
 />
    <glyph glyph-name="space" unicode=" " horiz-adv-x="113" 
 />
    <glyph glyph-name="exclam" unicode="!" horiz-adv-x="231" 
d="M53 204l-22 489h169l-23 -489h-124zM45 0v138h141v-138h-141z" />
    <glyph glyph-name="quotedbl" unicode="&#x22;" horiz-adv-x="339" 
d="M34 483l-15 210h134l-13 -210h-106zM200 483l-15 210h134l-13 -210h-106z" />
    <glyph glyph-name="quotesingle" unicode="'" horiz-adv-x="172" 
d="M34 483l-15 210h134l-13 -210h-106z" />
    <glyph glyph-name="comma" unicode="," horiz-adv-x="197" 
d="M18 -74l14 217h145l-45 -217h-114z" />
    <glyph glyph-name="hyphen" unicode="-" horiz-adv-x="244" 
d="M24 225v117h196v-117h-196z" />
    <glyph glyph-name="period" unicode="." horiz-adv-x="195" 
d="M27 0v140h141v-140h-141z" />
    <glyph glyph-name="zero" unicode="0" horiz-adv-x="503" 
d="M253 -8c-150 0 -228 93 -228 326v61c0 215 72 322 223 322c146 0 230 -85 230 -317v-62c0 -224 -82 -330 -225 -330zM253 115c46 0 56 49 56 166v134c0 125 -17 163 -60 163s-55 -46 -55 -160v-134c0 -118 11 -169 59 -169z" />
    <glyph glyph-name="one" unicode="1" horiz-adv-x="294" 
d="M91 0v536l-80 -7v95l148 71h90v-695h-158z" />
    <glyph glyph-name="two" unicode="2" horiz-adv-x="395" 
d="M16 0v111l116 175c45 69 70 114 70 184c0 68 -37 101 -96 101c-38 0 -67 -10 -85 -19v119c26 14 79 30 150 30c125 0 200 -67 200 -214c0 -108 -43 -174 -103 -254l-82 -108v-3h188v-122h-358z" />
    <glyph glyph-name="three" unicode="3" horiz-adv-x="394" 
d="M158 -8c-72 0 -117 14 -145 33v112c24 -11 60 -19 93 -19c67 0 96 25 96 95c0 62 -22 85 -80 85h-41v113h44c52 0 75 27 75 82c0 57 -23 83 -93 83c-30 0 -62 -6 -82 -13v111c27 16 72 27 135 27c132 0 201 -58 201 -173c0 -100 -41 -144 -101 -162v-4
c70 -13 113 -52 113 -164c0 -134 -80 -206 -215 -206z" />
    <glyph glyph-name="four" unicode="4" horiz-adv-x="457" 
d="M227 0v135h-218v106l218 453h156v-443h63v-116h-63v-135h-156zM120 251h108v222h-3l-105 -219v-3z" />
    <glyph glyph-name="five" unicode="5" horiz-adv-x="391" 
d="M155 -8c-66 0 -111 13 -142 28v115c24 -9 56 -16 87 -16c74 0 99 36 99 104c0 66 -23 98 -101 98c-21 0 -46 -2 -67 -5l16 377h306v-124h-187l-6 -139c11 2 25 4 44 4c114 0 166 -67 166 -207c0 -148 -79 -235 -215 -235z" />
    <glyph glyph-name="six" unicode="6" horiz-adv-x="468" 
d="M245 104c34 0 47 32 47 114c0 79 -12 112 -56 112c-20 0 -38 -9 -44 -13v-67c0 -110 15 -146 53 -146zM246 -8c-150 0 -220 102 -220 297v63c0 264 100 349 264 349c63 0 107 -11 125 -22v-119c-20 7 -57 15 -96 15c-86 0 -127 -32 -127 -166c23 15 53 28 104 28
c104 0 156 -70 156 -207c0 -142 -59 -238 -206 -238z" />
    <glyph glyph-name="seven" unicode="7" horiz-adv-x="376" 
d="M39 0l158 560v5h-189v128h355v-114l-153 -579h-171z" />
    <glyph glyph-name="eight" unicode="8" horiz-adv-x="451" 
d="M215 -7c-135 0 -205 63 -205 174c0 82 42 135 108 169c-41 32 -93 83 -93 179c0 113 73 186 208 186c129 0 192 -66 192 -176c0 -77 -49 -129 -95 -150c70 -42 111 -93 111 -187c0 -123 -78 -195 -226 -195zM215 102c41 0 63 29 63 71c0 46 -26 76 -80 106
c-22 -20 -46 -53 -46 -104c0 -46 24 -73 63 -73zM249 424c22 23 37 53 37 96s-15 71 -52 71c-32 0 -50 -24 -50 -66c0 -48 22 -74 65 -101z" />
    <glyph glyph-name="nine" unicode="9" horiz-adv-x="468" 
d="M178 -8c-63 0 -109 14 -128 25v118c20 -7 60 -16 100 -16c90 0 127 31 126 165c-21 -15 -52 -28 -92 -28c-112 0 -168 70 -168 208c0 140 60 237 212 237c154 0 214 -101 214 -293v-67c0 -264 -93 -349 -264 -349zM234 363c20 0 37 9 42 12v68c0 111 -11 146 -49 146
c-36 0 -50 -30 -50 -114c0 -79 13 -112 57 -112z" />
    <glyph glyph-name="question" unicode="?" horiz-adv-x="341" 
d="M67 204v47c0 69 8 97 61 155c33 35 46 54 46 100c0 52 -27 75 -87 75c-32 0 -53 -5 -73 -10v110c26 11 79 20 134 20c118 0 180 -61 180 -175c0 -84 -25 -125 -75 -178c-45 -47 -60 -55 -60 -106v-38h-126zM61 0v138h140v-138h-140z" />
    <glyph glyph-name="A" unicode="A" horiz-adv-x="490" 
d="M4 0l142 693h195l145 -693h-156l-24 128h-134l-23 -128h-145zM241 541h-3s-7 -63 -19 -133l-30 -169h99l-31 169c-13 71 -16 133 -16 133z" />
    <glyph glyph-name="B" unicode="B" horiz-adv-x="478" 
d="M37 0v693h224c123 0 181 -59 181 -174c0 -88 -36 -139 -107 -154v-3c77 -12 129 -49 129 -171c0 -118 -62 -191 -206 -191h-221zM195 110h33c54 0 71 29 71 100c0 72 -22 93 -72 93h-32v-193zM195 411h30c43 0 65 19 65 89c0 68 -21 85 -63 85h-32v-174z" />
    <glyph glyph-name="C" unicode="C" horiz-adv-x="431" 
d="M278 -8c-166 0 -253 82 -253 317v70c0 254 113 322 259 322c54 0 100 -12 124 -25v-120c-23 9 -54 16 -88 16c-85 0 -123 -40 -123 -188v-66c0 -135 27 -197 119 -197c41 0 74 10 96 20v-120c-24 -15 -76 -29 -134 -29z" />
    <glyph glyph-name="D" unicode="D" horiz-adv-x="512" 
d="M37 0v693h194c159 0 258 -71 258 -305v-69c0 -227 -102 -319 -258 -319h-194zM198 122h35c61 0 89 54 89 185v83c0 138 -31 181 -91 181h-33v-449z" />
    <glyph glyph-name="E" unicode="E" horiz-adv-x="407" 
d="M37 0v693h345v-122h-185v-156h158v-120h-158v-173h194v-122h-354z" />
    <glyph glyph-name="F" unicode="F" horiz-adv-x="393" 
d="M37 0v693h341v-122h-181v-177h153v-120h-153v-274h-160z" />
    <glyph glyph-name="G" unicode="G" horiz-adv-x="498" 
d="M275 -8c-162 0 -250 68 -250 328v53c0 234 88 328 272 328c75 0 124 -15 145 -28v-124c-28 11 -66 21 -115 21c-104 0 -133 -53 -133 -173v-137c0 -104 21 -146 85 -146c17 0 31 3 38 5v151h-55v119h207v-360c-36 -17 -108 -37 -194 -37z" />
    <glyph glyph-name="H" unicode="H" horiz-adv-x="514" 
d="M37 0v693h160v-274h120v274h160v-693h-160v296h-120v-296h-160z" />
    <glyph glyph-name="I" unicode="I" horiz-adv-x="234" 
d="M37 0v693h160v-693h-160z" />
    <glyph glyph-name="J" unicode="J" horiz-adv-x="330" 
d="M128 -7c-49 0 -89 8 -113 21v116c12 -3 34 -7 55 -7c47 0 65 18 65 71v499h160v-521c0 -107 -40 -179 -167 -179z" />
    <glyph glyph-name="K" unicode="K" horiz-adv-x="496" 
d="M37 0v693h160v-323l128 323h164l-139 -322l146 -371h-176l-123 348v-348h-160z" />
    <glyph glyph-name="L" unicode="L" horiz-adv-x="380" 
d="M37 0v693h160v-571h168v-122h-328z" />
    <glyph glyph-name="M" unicode="M" horiz-adv-x="651" 
d="M37 0v693h210l57 -297c15 -79 22 -147 22 -147h2s8 73 22 147l55 297h209v-693h-147v271c0 98 10 254 10 254h-2s-21 -123 -39 -211l-63 -314h-109l-62 309c-12 59 -41 215 -41 215h-2s8 -143 8 -253v-271h-130z" />
    <glyph glyph-name="N" unicode="N" horiz-adv-x="512" 
d="M37 0v693h170l101 -309c20 -60 42 -160 42 -160h1s-10 72 -10 181v288h134v-693h-159l-99 292c-27 79 -56 192 -56 192h-2s12 -70 12 -216v-268h-134z" />
    <glyph glyph-name="O" unicode="O" horiz-adv-x="525" 
d="M263 -8c-154 0 -238 93 -238 324v63c0 216 84 322 235 322c150 0 240 -84 240 -317v-66c0 -222 -88 -326 -237 -326zM263 115c52 0 67 47 67 164v129c0 125 -16 170 -69 170c-54 0 -66 -51 -66 -164v-128c0 -121 13 -171 68 -171z" />
    <glyph glyph-name="P" unicode="P" horiz-adv-x="476" 
d="M37 0v693h219c146 0 203 -64 203 -223c0 -158 -57 -232 -204 -232h-58v-238h-160zM197 352h31c48 0 67 31 67 113c0 86 -19 111 -67 111h-31v-224z" />
    <glyph glyph-name="Q" unicode="Q" horiz-adv-x="526" 
d="M488 -96l-255 82c-117 36 -208 89 -208 331v62c0 216 85 322 236 322s241 -84 241 -317v-65c0 -155 -43 -233 -114 -261l134 -31zM264 111c53 0 67 48 67 165v132c0 125 -17 170 -69 170s-65 -51 -65 -163v-132c0 -121 12 -172 67 -172z" />
    <glyph glyph-name="R" unicode="R" horiz-adv-x="483" 
d="M37 0v693h218c141 0 203 -58 203 -209c0 -96 -32 -147 -77 -170v-4l103 -310h-163l-79 255h-45v-255h-160zM195 367h36c46 0 63 33 63 105c0 74 -14 105 -66 105h-33v-210z" />
    <glyph glyph-name="S" unicode="S" horiz-adv-x="404" 
d="M165 -8c-58 0 -111 13 -144 32v123c25 -11 73 -27 122 -27c57 0 90 22 90 71c0 48 -23 62 -62 85l-45 26c-52 30 -107 85 -107 195c0 135 74 204 211 204c67 0 102 -10 127 -23v-124c-23 11 -64 22 -109 22c-47 0 -75 -16 -75 -63c0 -42 20 -54 52 -72l44 -24
c73 -40 117 -79 117 -200c0 -145 -72 -225 -221 -225z" />
    <glyph glyph-name="T" unicode="T" horiz-adv-x="421" 
d="M131 0v571h-119v122h397v-122h-118v-571h-160z" />
    <glyph glyph-name="U" unicode="U" horiz-adv-x="506" 
d="M254 -9c-167 0 -220 76 -220 209v493h160v-496c0 -54 13 -82 61 -82c49 0 60 28 60 83v495h157v-492c0 -134 -68 -210 -218 -210z" />
    <glyph glyph-name="V" unicode="V" horiz-adv-x="489" 
d="M148 0l-141 693h158l69 -393c12 -68 15 -135 15 -135h3s2 67 14 136l67 392h149l-142 -693h-192z" />
    <glyph glyph-name="W" unicode="W" horiz-adv-x="682" 
d="M116 0l-107 693h157l42 -333c6 -51 13 -137 13 -137h3s5 77 13 137l43 333h139l42 -332c7 -55 14 -139 14 -139h3s6 71 14 139l41 332h140l-107 -693h-165l-44 302c-9 64 -11 129 -11 129h-2s-4 -74 -12 -128l-43 -303h-173z" />
    <glyph glyph-name="X" unicode="X" horiz-adv-x="508" 
d="M11 0l139 350l-126 343h174l43 -140c14 -45 24 -95 24 -95h2s8 49 21 95l41 140h158l-123 -329l133 -364h-171l-51 166c-17 55 -23 89 -23 89h-3s-7 -41 -24 -90l-56 -165h-158z" />
    <glyph glyph-name="Y" unicode="Y" horiz-adv-x="475" 
d="M158 0v254l-154 439h169l49 -169c19 -66 26 -125 26 -125h2s7 57 26 125l47 169h148l-152 -438v-255h-161z" />
    <glyph glyph-name="Z" unicode="Z" horiz-adv-x="413" 
d="M22 0v114l191 454v3h-182v122h358v-114l-192 -454v-3h195v-122h-370z" />
    <glyph glyph-name="a" unicode="a" horiz-adv-x="413" 
d="M151 -7c-86 0 -138 54 -138 155s53 145 149 163l76 14v29c0 49 -18 68 -79 68c-41 0 -86 -8 -108 -16v102c31 15 88 31 165 31c123 0 169 -52 169 -165v-374h-122l-10 32h-4c-18 -21 -50 -39 -98 -39zM203 93c17 0 28 5 35 10v134l-30 -3c-34 -3 -49 -23 -49 -67
c0 -50 10 -74 44 -74z" />
    <glyph glyph-name="b" unicode="b" horiz-adv-x="446" 
d="M209 -7c-74 0 -145 14 -179 32v705h146v-233h3c21 20 55 42 103 42c86 0 145 -58 145 -225v-50c0 -193 -71 -271 -218 -271zM214 94c42 0 61 28 61 144v60c0 104 -16 122 -53 122c-22 0 -37 -8 -45 -12v-309c7 -3 21 -5 37 -5z" />
    <glyph glyph-name="c" unicode="c" horiz-adv-x="342" 
d="M223 -7c-138 0 -205 71 -205 252v36c0 179 74 258 210 258c46 0 79 -8 99 -19v-113c-18 8 -42 16 -72 16c-62 0 -85 -39 -85 -126v-52c0 -100 24 -135 85 -135c33 0 58 9 75 17v-107c-20 -14 -60 -27 -107 -27z" />
    <glyph glyph-name="d" unicode="d" 
d="M175 -7c-95 0 -156 59 -156 247v40c0 180 60 259 177 259c29 0 57 -6 73 -16v207h147v-730h-128l-8 36h-3c-19 -19 -51 -43 -102 -43zM227 106c18 0 32 6 42 13v306c-8 3 -20 7 -37 7c-49 0 -62 -36 -62 -143v-48c0 -98 14 -135 57 -135z" />
    <glyph glyph-name="e" unicode="e" horiz-adv-x="416" 
d="M242 -7c-152 0 -224 83 -224 257v28c0 167 59 261 196 261c136 0 185 -78 185 -258v-63h-232c2 -78 27 -115 102 -115c43 0 87 16 114 29v-97c-29 -21 -82 -42 -141 -42zM214 434c-36 0 -46 -25 -47 -124h94c0 98 -12 124 -47 124z" />
    <glyph glyph-name="f" unicode="f" horiz-adv-x="282" 
d="M55 0v424h-47v108h47v53c0 109 53 152 144 152c38 0 70 -7 86 -14v-95c-8 2 -21 3 -34 3c-39 0 -49 -23 -49 -63v-36h71v-108h-71v-424h-147z" />
    <glyph glyph-name="g" unicode="g" horiz-adv-x="422" 
d="M195 -190c-132 0 -195 41 -195 113c0 56 38 83 84 101v4c-30 11 -56 40 -56 87c0 48 28 81 59 104c-32 19 -68 63 -68 131v24c0 106 76 165 181 165c29 0 55 -4 69 -7h147v-94h-53c7 -12 16 -33 16 -63v-20c0 -107 -66 -164 -173 -164c-23 0 -44 2 -56 5
c-5 -5 -9 -17 -9 -27c0 -17 10 -26 35 -26h81c114 0 163 -58 163 -157c0 -115 -72 -176 -225 -176zM201 -96c62 0 85 19 85 59c0 33 -19 46 -57 46h-70c-17 -9 -33 -25 -33 -54c0 -36 27 -51 75 -51zM201 284c28 0 41 19 41 70v16c0 58 -14 75 -41 75c-31 0 -42 -20 -42 -73
v-16c0 -53 14 -72 42 -72z" />
    <glyph glyph-name="h" unicode="h" horiz-adv-x="441" 
d="M30 0v730h146v-239h3c25 22 62 48 120 48c71 0 114 -37 114 -124v-415h-147v386c0 25 -15 32 -38 32c-22 0 -42 -9 -52 -14v-404h-146z" />
    <glyph glyph-name="i" unicode="i" horiz-adv-x="207" 
d="M31 0v532h146v-532h-146zM30 589v127h147v-127h-147z" />
    <glyph glyph-name="j" unicode="j" horiz-adv-x="208" 
d="M37 -194c-39 0 -68 9 -82 17v95c6 -1 18 -2 28 -2c34 0 48 15 48 60v556h147v-570c0 -96 -37 -156 -141 -156zM30 589v127h148v-127h-148z" />
    <glyph glyph-name="k" unicode="k" horiz-adv-x="423" 
d="M176 730v-437l97 239h147l-106 -243l109 -289h-155l-92 266v-266h-146v730h146z" />
    <glyph glyph-name="l" unicode="l" horiz-adv-x="206" 
d="M30 0v730h146v-730h-146z" />
    <glyph glyph-name="m" unicode="m" horiz-adv-x="659" 
d="M30 0v532h142v-42h3c24 22 61 49 117 49c51 0 83 -18 99 -55h3c29 28 66 55 125 55c70 0 111 -35 111 -124v-415h-147v387c0 22 -10 31 -34 31c-18 0 -35 -7 -46 -15v-403h-147v387c0 23 -11 31 -33 31c-20 0 -36 -7 -47 -14v-404h-146z" />
    <glyph glyph-name="n" unicode="n" horiz-adv-x="441" 
d="M30 0v532h142v-42h3c26 23 63 49 123 49c73 0 115 -37 115 -124v-415h-147v386c0 25 -15 32 -38 32c-22 0 -42 -9 -52 -14v-404h-146z" />
    <glyph glyph-name="o" unicode="o" horiz-adv-x="443" 
d="M222 -7c-142 0 -204 97 -204 254v43c0 159 75 249 202 249c139 0 205 -82 205 -248v-42c0 -164 -73 -256 -203 -256zM223 106c39 0 51 43 51 118v83c0 86 -15 119 -53 119c-41 0 -51 -41 -51 -119v-83c0 -78 12 -118 53 -118z" />
    <glyph glyph-name="p" unicode="p" 
d="M30 -187v719h142v-41h3c20 22 56 48 108 48c98 0 143 -64 143 -230v-45c0 -191 -56 -271 -179 -271c-33 0 -58 8 -71 14v-194h-146zM215 93c47 0 60 40 60 146v56c0 96 -11 124 -53 124c-21 0 -37 -8 -46 -15v-302c7 -4 21 -9 39 -9z" />
    <glyph glyph-name="q" unicode="q" 
d="M269 27h-3c-21 -20 -55 -34 -94 -34c-87 0 -153 56 -153 233v49c0 187 71 264 228 264c72 0 143 -15 169 -30v-696h-147v214zM233 430c-42 0 -63 -28 -63 -144v-58c0 -101 15 -122 55 -122c20 0 36 7 44 13v305c-7 3 -19 6 -36 6z" />
    <glyph glyph-name="r" unicode="r" horiz-adv-x="297" 
d="M30 0v532h142v-55h3c22 38 51 62 91 62c8 0 19 -1 23 -2v-142c-6 1 -23 2 -38 2c-28 0 -53 -6 -75 -20v-377h-146z" />
    <glyph glyph-name="s" unicode="s" horiz-adv-x="332" 
d="M138 -7c-52 0 -95 10 -122 27v104c25 -9 59 -21 99 -21c49 0 65 17 65 51c0 30 -17 40 -50 56l-29 14c-47 23 -88 64 -88 148c0 116 69 167 176 167c45 0 80 -6 105 -17v-105c-23 8 -56 14 -89 14c-36 0 -59 -8 -59 -42c0 -26 15 -35 42 -48l34 -17
c52 -26 95 -55 95 -149c0 -113 -54 -182 -179 -182z" />
    <glyph glyph-name="t" unicode="t" horiz-adv-x="290" 
d="M182 -7c-84 0 -128 31 -128 122v309h-45v108h45v117h147v-117h72v-108h-72v-278c0 -29 11 -39 38 -39c14 0 26 3 34 6v-98c-14 -11 -51 -22 -91 -22z" />
    <glyph glyph-name="u" unicode="u" horiz-adv-x="439" 
d="M145 -7c-81 0 -116 47 -116 136v403h147v-385c0 -21 10 -33 37 -33c20 0 42 10 49 15v403h147v-532h-128l-10 43h-4c-22 -20 -63 -50 -122 -50z" />
    <glyph glyph-name="v" unicode="v" horiz-adv-x="425" 
d="M130 0l-128 532h152l50 -283c7 -39 12 -92 12 -92h3s6 53 13 92l49 283h142l-128 -532h-165z" />
    <glyph glyph-name="w" unicode="w" horiz-adv-x="596" 
d="M107 0l-103 532h143l31 -215c10 -70 14 -128 14 -128h2s4 56 16 128l36 215h122l35 -215c12 -72 16 -128 16 -128h3s4 61 13 127l28 216h129l-99 -532h-143l-31 168c-12 66 -19 140 -19 140h-2s-9 -80 -18 -140l-26 -168h-147z" />
    <glyph glyph-name="x" unicode="x" horiz-adv-x="423" 
d="M4 0l110 274l-103 258h156l32 -93c15 -42 23 -81 23 -81h1s8 43 20 81l29 93h136l-98 -255l109 -277h-156l-37 108c-14 40 -23 82 -23 82h-1s-10 -41 -24 -83l-37 -107h-137z" />
    <glyph glyph-name="y" unicode="y" horiz-adv-x="418" 
d="M108 -194c-26 0 -53 4 -76 11v102c11 -2 30 -4 44 -4c35 0 52 11 63 53l7 24l-144 540h152l47 -229c12 -60 15 -114 15 -114h2s8 69 16 112l43 231h139l-142 -577c-25 -103 -66 -149 -166 -149z" />
    <glyph glyph-name="z" unicode="z" horiz-adv-x="359" 
d="M18 0v106l158 314v3h-154v109h321v-98l-166 -322v-3h163v-109h-322z" />
    <glyph glyph-name="quotedblleft" unicode="&#x201c;" horiz-adv-x="357" 
d="M14 483l44 210h110l-19 -210h-135zM182 483l44 210h110l-19 -210h-135z" />
    <glyph glyph-name="quotedblright" unicode="&#x201d;" horiz-adv-x="357" 
d="M22 483l19 210h135l-44 -210h-110zM189 483l19 210h135l-44 -210h-110z" />
    <glyph glyph-name="quoteleft" unicode="&#x2018;" horiz-adv-x="190" 
d="M14 483l44 210h110l-19 -210h-135z" />
    <glyph glyph-name="quoteright" unicode="&#x2019;" horiz-adv-x="190" 
d="M22 483l19 210h135l-44 -210h-110z" />
    </font>
</defs>
</svg>
